<svg width="48" height="48" viewBox="0 0 48 48" fill="none" xmlns="http://www.w3.org/2000/svg">
<path d="M11 16H12V17C12 17.5304 12.2107 18.0391 12.5858 18.4142C12.9609 18.7893 13.4696 19 14 19C14.5304 19 15.0391 18.7893 15.4142 18.4142C15.7893 18.0391 16 17.5304 16 17V16H17C17.5304 16 18.0391 15.7893 18.4142 15.4142C18.7893 15.0391 19 14.5304 19 14C19 13.4696 18.7893 12.9609 18.4142 12.5858C18.0391 12.2107 17.5304 12 17 12H16V11C16 10.4696 15.7893 9.96086 15.4142 9.58579C15.0391 9.21071 14.5304 9 14 9C13.4696 9 12.9609 9.21071 12.5858 9.58579C12.2107 9.96086 12 10.4696 12 11V12H11C10.4696 12 9.96086 12.2107 9.58579 12.5858C9.21071 12.9609 9 13.4696 9 14C9 14.5304 9.21071 15.0391 9.58579 15.4142C9.96086 15.7893 10.4696 16 11 16ZM9.76 38.24C10.1347 38.6125 10.6416 38.8216 11.17 38.8216C11.6984 38.8216 12.2053 38.6125 12.58 38.24L14 36.82L15.42 38.24C15.7947 38.6125 16.3016 38.8216 16.83 38.8216C17.3584 38.8216 17.8653 38.6125 18.24 38.24C18.6125 37.8653 18.8216 37.3584 18.8216 36.83C18.8216 36.3016 18.6125 35.7947 18.24 35.42L16.82 34L18.24 32.58C18.5677 32.1974 18.7389 31.7052 18.7194 31.2019C18.7 30.6985 18.4913 30.2211 18.1351 29.8649C17.7789 29.5087 17.3015 29.3 16.7981 29.2806C16.2948 29.2611 15.8026 29.4323 15.42 29.76L14 31.18L12.58 29.76C12.1974 29.4323 11.7052 29.2611 11.2019 29.2806C10.6985 29.3 10.2211 29.5087 9.86487 29.8649C9.50868 30.2211 9.30002 30.6985 9.28058 31.2019C9.26114 31.7052 9.43235 32.1974 9.76 32.58L11.18 34L9.76 35.42C9.3875 35.7947 9.17841 36.3016 9.17841 36.83C9.17841 37.3584 9.3875 37.8653 9.76 38.24ZM40 2H8C6.4087 2 4.88258 2.63214 3.75736 3.75736C2.63214 4.88258 2 6.4087 2 8V40C2 41.5913 2.63214 43.1174 3.75736 44.2426C4.88258 45.3679 6.4087 46 8 46H40C41.5913 46 43.1174 45.3679 44.2426 44.2426C45.3679 43.1174 46 41.5913 46 40V8C46 6.4087 45.3679 4.88258 44.2426 3.75736C43.1174 2.63214 41.5913 2 40 2ZM22 42H8C7.46957 42 6.96086 41.7893 6.58579 41.4142C6.21071 41.0391 6 40.5304 6 40V26H22V42ZM22 22H6V8C6 7.46957 6.21071 6.96086 6.58579 6.58579C6.96086 6.21071 7.46957 6 8 6H22V22ZM42 40C42 40.5304 41.7893 41.0391 41.4142 41.4142C41.0391 41.7893 40.5304 42 40 42H26V26H42V40ZM42 22H26V6H40C40.5304 6 41.0391 6.21071 41.4142 6.58579C41.7893 6.96086 42 7.46957 42 8V22ZM31 33H37C37.5304 33 38.0391 32.7893 38.4142 32.4142C38.7893 32.0391 39 31.5304 39 31C39 30.4696 38.7893 29.9609 38.4142 29.5858C38.0391 29.2107 37.5304 29 37 29H31C30.4696 29 29.9609 29.2107 29.5858 29.5858C29.2107 29.9609 29 30.4696 29 31C29 31.5304 29.2107 32.0391 29.5858 32.4142C29.9609 32.7893 30.4696 33 31 33ZM37 12H31C30.4696 12 29.9609 12.2107 29.5858 12.5858C29.2107 12.9609 29 13.4696 29 14C29 14.5304 29.2107 15.0391 29.5858 15.4142C29.9609 15.7893 30.4696 16 31 16H37C37.5304 16 38.0391 15.7893 38.4142 15.4142C38.7893 15.0391 39 14.5304 39 14C39 13.4696 38.7893 12.9609 38.4142 12.5858C38.0391 12.2107 37.5304 12 37 12ZM31 39H37C37.5304 39 38.0391 38.7893 38.4142 38.4142C38.7893 38.0391 39 37.5304 39 37C39 36.4696 38.7893 35.9609 38.4142 35.5858C38.0391 35.2107 37.5304 35 37 35H31C30.4696 35 29.9609 35.2107 29.5858 35.5858C29.2107 35.9609 29 36.4696 29 37C29 37.5304 29.2107 38.0391 29.5858 38.4142C29.9609 38.7893 30.4696 39 31 39Z" fill="#777777"/>
</svg>
