<svg width="48" height="49" viewBox="0 0 48 49" fill="none" xmlns="http://www.w3.org/2000/svg">
<path d="M8 28.498L26 28.5C27.0092 28.4997 27.9811 28.8808 28.7211 29.567C29.4611 30.2532 29.9143 31.1937 29.99 32.2L30 32.5V35.5C29.998 42.5 22.568 44.5 17 44.5C11.556 44.5 4.33 42.588 4.01 35.96L4 35.5V32.498C4 30.39 5.632 28.662 7.7 28.508L8 28.5V28.498ZM30.44 28.5H40C42.108 28.5 43.836 30.132 43.988 32.2L44 32.5V34.5C43.998 40.624 38.284 42.5 34 42.5C32.5489 42.5034 31.1058 42.2863 29.72 41.856C30.392 41.084 30.934 40.202 31.324 39.202C32.2025 39.3983 33.0998 39.4983 34 39.5L34.534 39.488C36.504 39.402 40.706 38.762 40.986 34.91L41 34.5V32.5C40.9997 32.2661 40.9175 32.0396 40.7678 31.8599C40.618 31.6801 40.4101 31.5585 40.18 31.516L40 31.5H31.898C31.7326 30.5209 31.3234 29.5993 30.708 28.82L30.44 28.5H40H30.44ZM8 31.498L7.8 31.518C7.60804 31.558 7.43167 31.6524 7.292 31.79C7.15436 31.9289 7.05989 32.1046 7.02 32.296L7 32.498V35.5C7 37.518 7.9 38.944 9.834 39.984C11.486 40.874 13.84 41.412 16.366 41.49L17 41.5L17.634 41.49C20.16 41.412 22.512 40.874 24.166 39.984C25.978 39.008 26.884 37.694 26.99 35.87L27 35.498V32.5C26.9997 32.2661 26.9175 32.0396 26.7678 31.8599C26.618 31.6801 26.4101 31.5585 26.18 31.516L26 31.5L8 31.498ZM17 6.5C19.3869 6.5 21.6761 7.44821 23.364 9.13604C25.0518 10.8239 26 13.1131 26 15.5C26 17.8869 25.0518 20.1761 23.364 21.864C21.6761 23.5518 19.3869 24.5 17 24.5C14.6131 24.5 12.3239 23.5518 10.636 21.864C8.94821 20.1761 8 17.8869 8 15.5C8 13.1131 8.94821 10.8239 10.636 9.13604C12.3239 7.44821 14.6131 6.5 17 6.5ZM35 10.5C36.8565 10.5 38.637 11.2375 39.9497 12.5503C41.2625 13.863 42 15.6435 42 17.5C42 19.3565 41.2625 21.137 39.9497 22.4497C38.637 23.7625 36.8565 24.5 35 24.5C33.1435 24.5 31.363 23.7625 30.0503 22.4497C28.7375 21.137 28 19.3565 28 17.5C28 15.6435 28.7375 13.863 30.0503 12.5503C31.363 11.2375 33.1435 10.5 35 10.5ZM17 9.5C13.692 9.5 11 12.192 11 15.5C11 18.808 13.692 21.5 17 21.5C20.308 21.5 23 18.808 23 15.5C23 12.192 20.308 9.5 17 9.5ZM35 13.5C32.794 13.5 31 15.294 31 17.5C31 19.706 32.794 21.5 35 21.5C37.206 21.5 39 19.706 39 17.5C39 15.294 37.206 13.5 35 13.5Z" fill="#777777"/>
</svg>
