<svg width="48" height="48" viewBox="0 0 48 48" fill="none" xmlns="http://www.w3.org/2000/svg">
<path d="M24 3C12.4031 3 3 12.4031 3 24C3 35.5969 12.4031 45 24 45C35.5969 45 45 35.5969 45 24C45 12.4031 35.5969 3 24 3ZM24 41.4375C14.3719 41.4375 6.5625 33.6281 6.5625 24C6.5625 14.3719 14.3719 6.5625 24 6.5625C33.6281 6.5625 41.4375 14.3719 41.4375 24C41.4375 33.6281 33.6281 41.4375 24 41.4375ZM26.2359 22.9125L25.0453 22.6359V16.3406C26.8266 16.5844 27.9281 17.7 28.1156 19.0687C28.1391 19.2562 28.2984 19.3922 28.4859 19.3922H30.5906C30.8109 19.3922 30.9844 19.2 30.9656 18.9797C30.6797 16.0594 28.275 14.1844 25.0641 13.8609V12.3281C25.0641 12.1219 24.8953 11.9531 24.6891 11.9531H23.3719C23.1656 11.9531 22.9969 12.1219 22.9969 12.3281V13.875C19.6781 14.1984 17.0812 16.0312 17.0812 19.4531C17.0812 22.6219 19.4156 24.15 21.8672 24.7359L23.025 25.0312V31.7203C20.9531 31.4438 19.7906 30.3375 19.5516 28.8469C19.5234 28.6688 19.3641 28.5375 19.1813 28.5375H17.0156C16.7953 28.5375 16.6219 28.725 16.6406 28.9453C16.8516 31.5234 18.8063 33.8953 22.9781 34.2V35.6719C22.9781 35.8781 23.1469 36.0469 23.3531 36.0469H24.6844C24.8906 36.0469 25.0594 35.8781 25.0594 35.6672L25.05 34.1813C28.7203 33.8578 31.3453 31.8938 31.3453 28.3688C31.3406 25.1156 29.2734 23.6625 26.2359 22.9125ZM23.0203 22.1531C22.7578 22.0781 22.5375 22.0078 22.3172 21.9188C20.7328 21.3469 19.9969 20.4234 19.9969 19.2328C19.9969 17.5312 21.2859 16.5609 23.0203 16.3406V22.1531ZM25.0453 31.7344V25.4672C25.1906 25.5094 25.3219 25.5422 25.4578 25.5703C27.675 26.2453 28.4203 27.1828 28.4203 28.6219C28.4203 30.4547 27.0422 31.5562 25.0453 31.7344Z" fill="#777777"/>
</svg>
