<svg width="48" height="48" viewBox="0 0 48 48" fill="none" xmlns="http://www.w3.org/2000/svg">
<path d="M42.667 10.6665H5.33366C4.62641 10.6665 3.94814 10.9475 3.44804 11.4476C2.94794 11.9477 2.66699 12.6259 2.66699 13.3332V34.6665C2.66699 35.3737 2.94794 36.052 3.44804 36.5521C3.94814 37.0522 4.62641 37.3332 5.33366 37.3332H42.667C43.3742 37.3332 44.0525 37.0522 44.5526 36.5521C45.0527 36.052 45.3337 35.3737 45.3337 34.6665V13.3332C45.3337 12.6259 45.0527 11.9477 44.5526 11.4476C44.0525 10.9475 43.3742 10.6665 42.667 10.6665ZM42.667 18.6665C41.3021 18.5559 40.0235 17.9547 39.0676 16.9743C38.1116 15.9938 37.5431 14.7004 37.467 13.3332H42.667V18.6665ZM42.667 20.8265V27.2665C40.7471 27.3818 38.9369 28.2 37.5818 29.5649C36.2268 30.9298 35.4217 32.7458 35.3203 34.6665H12.6537C12.5561 32.7478 11.7562 30.932 10.4063 29.5649C9.05648 28.1979 7.25097 27.3751 5.33366 27.2532V20.7998C7.26444 20.6831 9.0836 19.8555 10.4402 18.4767C11.7969 17.0979 12.5949 15.2656 12.6803 13.3332H35.347C35.4318 15.2613 36.2261 17.0901 37.5772 18.4682C38.9283 19.8464 40.7409 20.6768 42.667 20.7998V20.8265ZM10.5337 13.3332C10.4576 14.7004 9.88901 15.9938 8.93308 16.9743C7.97714 17.9547 6.69852 18.5559 5.33366 18.6665V13.3332H10.5337ZM5.33366 29.4132C6.68566 29.5216 7.95395 30.1113 8.90812 31.0753C9.86229 32.0392 10.4391 33.3135 10.5337 34.6665H5.33366V29.4132ZM37.467 34.6665C37.5616 33.3135 38.1384 32.0392 39.0925 31.0753C40.0467 30.1113 41.315 29.5216 42.667 29.4132V34.6665H37.467Z" fill="#777777"/>
<path d="M24.0006 14.4668C19.3739 14.4668 15.6006 18.7468 15.6006 24.0001C15.6006 29.2535 19.3739 33.5335 24.0006 33.5335C28.6273 33.5335 32.4006 29.2535 32.4006 24.0001C32.4006 18.7468 28.6273 14.4668 24.0006 14.4668ZM24.0006 31.3868C20.5473 31.3868 17.7339 28.0668 17.7339 23.9868C17.7339 19.9068 20.5473 16.5868 24.0006 16.5868C27.4539 16.5868 30.2673 19.9068 30.2673 23.9868C30.2673 28.0668 27.4539 31.4001 24.0006 31.4001V31.3868Z" fill="#777777"/>
</svg>
