<svg width="48" height="48" viewBox="0 0 48 48" fill="none" xmlns="http://www.w3.org/2000/svg">
<path d="M30 24C30 25.9891 30.7902 27.8968 32.1967 29.3033C33.6032 30.7098 35.5109 31.5 37.5 31.5C39.4891 31.5 41.3968 30.7098 42.8033 29.3033C44.2098 27.8968 45 25.9891 45 24C45.0002 23.7673 44.9463 23.5378 44.8425 23.3295L38.844 11.334C38.8236 11.2924 38.8011 11.2518 38.7765 11.2125C38.6422 10.9947 38.4544 10.8149 38.2309 10.6902C38.0075 10.5655 37.7559 10.5 37.5 10.5H28.233C28.0066 9.87249 27.6441 9.30284 27.1716 8.83189C26.6991 8.36095 26.1283 8.00037 25.5 7.776V3H22.5V7.776C21.8717 8.00037 21.3009 8.36095 20.8284 8.83189C20.3559 9.30284 19.9934 9.87249 19.767 10.5H10.5C10.2215 10.5001 9.94855 10.5778 9.71171 10.7243C9.47487 10.8708 9.28349 11.0804 9.159 11.3295L3.159 23.3295C3.05468 23.5376 3.00025 23.7672 3 24C3 25.9891 3.79018 27.8968 5.1967 29.3033C6.60322 30.7098 8.51088 31.5 10.5 31.5C12.4891 31.5 14.3968 30.7098 15.8033 29.3033C17.2098 27.8968 18 25.9891 18 24C18.0002 23.7673 17.9463 23.5378 17.8425 23.3295L12.9255 13.5H19.7655C19.9923 14.1274 20.3551 14.6968 20.8278 15.1675C21.3006 15.6382 21.8716 15.9985 22.5 16.2225V42H9V45H39V42H25.5V16.224C26.1283 15.9996 26.6991 15.6391 27.1716 15.1681C27.6441 14.6972 28.0066 14.1275 28.233 13.5H35.073L30.1575 23.3295C30.0537 23.5378 29.9998 23.7673 30 24ZM10.5 28.5C9.57266 28.4967 8.66904 28.2066 7.91306 27.6695C7.15709 27.1324 6.58578 26.3746 6.2775 25.5H14.7225C14.4142 26.3746 13.8429 27.1324 13.0869 27.6695C12.331 28.2066 11.4273 28.4967 10.5 28.5ZM14.073 22.5H6.927L10.5 15.354L14.073 22.5ZM24 13.5C23.7033 13.5 23.4133 13.412 23.1666 13.2472C22.92 13.0824 22.7277 12.8481 22.6142 12.574C22.5006 12.2999 22.4709 11.9983 22.5288 11.7074C22.5867 11.4164 22.7296 11.1491 22.9393 10.9393C23.1491 10.7296 23.4164 10.5867 23.7074 10.5288C23.9983 10.4709 24.2999 10.5006 24.574 10.6142C24.8481 10.7277 25.0824 10.92 25.2472 11.1666C25.412 11.4133 25.5 11.7033 25.5 12C25.5 12.3978 25.342 12.7794 25.0607 13.0607C24.7794 13.342 24.3978 13.5 24 13.5ZM37.5 28.5C36.5727 28.4967 35.669 28.2066 34.9131 27.6695C34.1571 27.1324 33.5858 26.3746 33.2775 25.5H41.7225C41.4142 26.3746 40.8429 27.1324 40.0869 27.6695C39.331 28.2066 38.4273 28.4967 37.5 28.5ZM37.5 15.354L41.073 22.5H33.927L37.5 15.354Z" fill="#777777"/>
</svg>
