<svg width="15" height="16" viewBox="0 0 15 16" fill="none" xmlns="http://www.w3.org/2000/svg">
<path d="M7.5 1.4375C3.87598 1.4375 0.9375 4.37598 0.9375 8C0.9375 11.624 3.87598 14.5625 7.5 14.5625C11.124 14.5625 14.0625 11.624 14.0625 8C14.0625 4.37598 11.124 1.4375 7.5 1.4375ZM7.5 13.4492C4.49121 13.4492 2.05078 11.0088 2.05078 8C2.05078 4.99121 4.49121 2.55078 7.5 2.55078C10.5088 2.55078 12.9492 4.99121 12.9492 8C12.9492 11.0088 10.5088 13.4492 7.5 13.4492ZM7.58203 5.646C8.3584 5.646 8.88574 6.14111 8.94434 6.86768C8.94873 6.9292 9 6.97607 9.06152 6.97607H9.89209C9.93018 6.97607 9.96094 6.94531 9.96094 6.90723C9.96094 5.63721 8.95898 4.74805 7.57764 4.74805C5.96777 4.74805 5.03906 5.83496 5.03906 7.63086V8.39697C5.03906 10.1797 5.96777 11.252 7.57764 11.252C8.95459 11.252 9.96094 10.3906 9.96094 9.18066C9.96094 9.14258 9.93018 9.11182 9.89209 9.11182H9.06006C8.99854 9.11182 8.94873 9.15869 8.94287 9.21875C8.88135 9.89404 8.35547 10.3584 7.58057 10.3584C6.62402 10.3584 6.08496 9.65674 6.08496 8.40137V7.63086C6.08643 6.35645 6.62695 5.646 7.58203 5.646Z" fill="white"/>
</svg>
