<svg width="34" height="34" viewBox="0 0 34 34" fill="none" xmlns="http://www.w3.org/2000/svg">
<g clip-path="url(#clip0_66_2710)">
<path fill-rule="evenodd" clip-rule="evenodd" d="M17 0C26.3888 0 34 7.61117 34 17C34 26.3888 26.3888 34 17 34C7.61117 34 0 26.3888 0 17C0 7.61117 7.61117 0 17 0Z" fill="#BFC7F8"/>
<path fill-rule="evenodd" clip-rule="evenodd" d="M23.8203 8.20068L42.6777 27.0581L44.7639 33.6443L25.9065 14.7868L23.8203 8.20068Z" fill="#AA90F7"/>
<path fill-rule="evenodd" clip-rule="evenodd" d="M25.9067 14.7866L44.764 33.6441L44.7742 33.6792L44.7824 33.7144L44.7889 33.7498L44.7935 33.785L44.7962 33.8204L44.7973 33.8554L44.7965 33.8904L44.7942 33.9251L44.79 33.9595L44.7842 33.9935L44.7769 34.027L44.7679 34.0603L44.7573 34.093L44.7454 34.125L44.7317 34.1564L44.7168 34.1871L25.8594 15.3297L25.8745 15.299L25.8881 15.2676L25.9 15.2355L25.9107 15.2029L25.9196 15.1697L25.9269 15.1361L25.9328 15.102L25.9369 15.0676L25.9392 15.0329L25.9399 14.998L25.9389 14.9629L25.9362 14.9277L25.9316 14.8924L25.9251 14.857L25.9168 14.8218L25.9067 14.7866Z" fill="#AA90F7"/>
<path fill-rule="evenodd" clip-rule="evenodd" d="M25.8592 15.3301L44.7168 34.1874L44.7002 34.2175L44.6824 34.2467L44.6632 34.2749L44.6424 34.3023L44.6205 34.3289L44.5973 34.3543L44.5727 34.3785L44.547 34.4018L44.5199 34.4237L44.4918 34.4443L44.4625 34.4637L44.4321 34.4818L44.4005 34.4984L44.368 34.5133L44.3345 34.5269L44.2999 34.5389L25.4424 15.6814L25.4771 15.6695L25.5106 15.656L25.5432 15.6409L25.5747 15.6243L25.6051 15.6063L25.6345 15.5869L25.6625 15.5662L25.6896 15.5443L25.7153 15.5211L25.7399 15.4968L25.7631 15.4714L25.785 15.445L25.8056 15.4176L25.825 15.3892L25.8428 15.3601L25.8592 15.3301Z" fill="#AA90F7"/>
<path fill-rule="evenodd" clip-rule="evenodd" d="M25.4424 15.6812L44.3001 34.5385L41.6749 35.37L22.8174 16.5127L25.4424 15.6812Z" fill="#AA90F7"/>
<path fill-rule="evenodd" clip-rule="evenodd" d="M25.8389 16.7871L44.6961 35.6445L44.7224 35.6749L44.7473 35.7064L44.7707 35.7393L44.7924 35.7733L44.8127 35.8084L44.8311 35.8444L44.8479 35.8814L44.863 35.9194L44.8761 35.9583L44.8874 35.9979L44.8968 36.0383L44.9042 36.0795L44.9095 36.1213L44.9128 36.1636L44.9139 36.2066L26.0565 17.3492L26.0555 17.3062L26.0522 17.2639L26.0469 17.2221L26.0396 17.1809L26.0301 17.1404L26.0188 17.1007L26.0057 17.0619L25.9906 17.024L25.9738 16.987L25.9554 16.9508L25.9352 16.9158L25.9134 16.8819L25.89 16.849L25.8651 16.8175L25.8389 16.7871Z" fill="#AA90F7"/>
<path fill-rule="evenodd" clip-rule="evenodd" d="M26.0566 17.3496L44.9142 36.207V44.318L26.0566 25.4606V17.3496Z" fill="#AA90F7"/>
<path fill-rule="evenodd" clip-rule="evenodd" d="M26.0569 25.46L44.9144 44.3173L44.9133 44.3603L44.91 44.4027L44.9047 44.4445L44.8973 44.4857L44.8879 44.526L44.8766 44.5657L44.8635 44.6046L44.8484 44.6426L44.8316 44.6796L44.8132 44.7156L44.7929 44.7507L44.7712 44.7847L44.7478 44.8174L44.7229 44.8491L44.6966 44.8795L44.6689 44.9085L25.8115 26.051L25.8392 26.0219L25.8655 25.9917L25.8904 25.96L25.9138 25.9273L25.9355 25.8933L25.9558 25.8582L25.9742 25.8222L25.991 25.7852L26.0061 25.7472L26.0192 25.7083L26.0305 25.6686L26.04 25.6281L26.0473 25.5871L26.0526 25.5453L26.0559 25.5028L26.0569 25.46Z" fill="#AA90F7"/>
<path fill-rule="evenodd" clip-rule="evenodd" d="M25.8119 26.0518L44.6694 44.9093L44.6403 44.937L44.61 44.9633L44.5784 44.9882L44.5455 45.0116L44.5117 45.0333L44.4766 45.0534L44.4404 45.072L44.4034 45.0888L44.3654 45.1039L44.3266 45.117L44.2869 45.1283L44.2465 45.1377L44.2054 45.145L44.1635 45.1504L44.1212 45.1537L44.0782 45.1547L25.2207 26.2973L25.2637 26.2963L25.306 26.293L25.3479 26.2877L25.389 26.2802L25.4294 26.2709L25.4691 26.2596L25.5079 26.2463L25.5459 26.2314L25.583 26.2146L25.619 26.196L25.654 26.1759L25.688 26.154L25.7207 26.1308L25.7525 26.1059L25.7828 26.0795L25.8119 26.0518Z" fill="#AA90F7"/>
<path fill-rule="evenodd" clip-rule="evenodd" d="M25.2205 26.2969L44.0779 45.1543H27.6377L8.78027 26.2969H25.2205Z" fill="#AA90F7"/>
<path fill-rule="evenodd" clip-rule="evenodd" d="M8.77975 26.2969L27.6371 45.1543L27.5941 45.1533L27.5518 45.15L27.51 45.1446L27.4688 45.1373L27.4285 45.1279L27.3888 45.1166L27.3499 45.1035L27.3119 45.0884L27.2749 45.0716L27.2389 45.053L27.2038 45.0329L27.1698 45.0112L27.1371 44.9878L27.1054 44.9629L8.24805 26.1055L8.27966 26.1304L8.31246 26.1536L8.34641 26.1755L8.38144 26.1956L8.4175 26.2142L8.45457 26.231L8.49252 26.2459L8.53137 26.2592L8.57103 26.2705L8.61147 26.2798L8.65261 26.2873L8.6944 26.2926L8.7368 26.2959L8.77975 26.2969Z" fill="#AA90F7"/>
<path fill-rule="evenodd" clip-rule="evenodd" d="M23.6826 7.95312L42.54 26.8106L42.5621 26.8375L42.5827 26.8657L42.6021 26.8949L42.6202 26.9253L42.6368 26.9569L42.6517 26.9894L42.6653 27.0231L42.6773 27.0576L23.8199 8.20024L23.808 8.16564L23.7943 8.13204L23.7792 8.09948L23.7628 8.06797L23.7447 8.03756L23.7253 8.00824L23.7047 7.98012L23.6826 7.95312Z" fill="#AA90F7"/>
<path fill-rule="evenodd" clip-rule="evenodd" d="M23.8201 8.20049L25.9063 14.7866C25.9656 14.9737 25.9431 15.1678 25.8591 15.3298C25.7751 15.4917 25.6293 15.6218 25.4422 15.6811L22.8172 16.5126H25.2202C25.4507 16.5126 25.6599 16.6067 25.8113 16.7581C25.9628 16.9095 26.0568 17.1188 26.0568 17.3492V25.4603C26.0568 25.6907 25.9628 25.9 25.8113 26.0514C25.6599 26.2029 25.4507 26.2969 25.2202 26.2969H8.77996C8.54953 26.2969 8.34027 26.2029 8.18883 26.0514C8.03739 25.9 7.94336 25.6907 7.94336 25.4603V17.3492C7.94336 17.1188 8.03739 16.9095 8.18883 16.7581C8.34027 16.6067 8.54948 16.5126 8.77996 16.5126H10.2693L9.11213 12.8595C9.05286 12.6723 9.07537 12.4782 9.15939 12.3163C9.24341 12.1544 9.38912 12.0242 9.57626 11.965L22.9256 7.73638C23.1128 7.67711 23.3069 7.69961 23.4688 7.78363C23.6307 7.86763 23.7609 8.01336 23.8201 8.20049H23.8201Z" fill="#AA90F7"/>
<path fill-rule="evenodd" clip-rule="evenodd" d="M9.57649 11.965L22.9259 7.73638C23.113 7.67711 23.3071 7.69961 23.4691 7.78363C23.631 7.86763 23.7611 8.01336 23.8204 8.2005L25.9067 14.7867C25.9659 14.9738 25.9434 15.1679 25.8594 15.3298C25.7754 15.4917 25.6296 15.6219 25.4425 15.6811L12.0931 19.9098C11.906 19.969 11.7119 19.9465 11.55 19.8625C11.388 19.7785 11.2579 19.6327 11.1986 19.4456L9.11235 12.8595C9.05308 12.6723 9.07561 12.4783 9.15963 12.3163C9.24363 12.1544 9.38934 12.0243 9.57649 11.965Z" fill="#33691E"/>
<path fill-rule="evenodd" clip-rule="evenodd" d="M9.55654 12.4039L11.0652 11.9261C11.0834 11.952 11.1008 11.9785 11.1172 12.0055C11.1743 12.0994 11.2223 12.2051 11.2593 12.3219C11.3795 12.7012 11.3345 13.0932 11.1647 13.4205C10.9949 13.7477 10.7002 14.0101 10.3209 14.1303C10.2215 14.1618 10.127 14.182 10.0384 14.1916L10.0262 14.1929L9.49631 12.52C9.48879 12.4962 9.49189 12.471 9.50292 12.4498C9.51396 12.4285 9.53273 12.4115 9.55654 12.4039ZM11.8472 19.6355L13.3559 19.1576C13.3558 19.126 13.3547 19.0943 13.3526 19.0627C13.3452 18.9531 13.3237 18.839 13.2867 18.7223C13.1665 18.343 12.9041 18.0483 12.5768 17.8785C12.2496 17.7087 11.8576 17.6638 11.4783 17.7839C11.3788 17.8154 11.2899 17.8533 11.2119 17.8965L11.2013 17.9024L11.7312 19.5753C11.7387 19.5992 11.7557 19.6179 11.777 19.629C11.7983 19.64 11.8234 19.6431 11.8472 19.6355H11.8472ZM25.4842 15.3158L23.9756 15.7937C23.9574 15.7677 23.94 15.7412 23.9235 15.7142C23.8664 15.6203 23.8185 15.5146 23.7815 15.3978C23.6613 15.0185 23.7063 14.6265 23.8761 14.2992C24.0458 13.9721 24.3405 13.7096 24.7198 13.5894C24.8193 13.5579 24.9137 13.5377 25.0024 13.5281L25.0145 13.5268L25.5445 15.1997C25.552 15.2235 25.5489 15.2487 25.5378 15.27C25.5268 15.2912 25.5081 15.3082 25.4842 15.3158ZM23.1936 8.08422L21.6849 8.56211C21.6849 8.59361 21.686 8.62526 21.6881 8.65704C21.6955 8.76669 21.7171 8.88076 21.7541 8.99749C21.8742 9.37679 22.1367 9.67147 22.4639 9.84125C22.7911 10.011 23.1832 10.056 23.5625 9.93585C23.662 9.90434 23.7508 9.86645 23.8288 9.82329L23.8395 9.81731L23.3096 8.14441C23.3021 8.12061 23.2851 8.10183 23.2638 8.09079C23.2425 8.07977 23.2174 8.07668 23.1935 8.08422H23.1936ZM16.4669 10.5339C17.3752 10.2461 18.3142 10.3538 19.0981 10.7606C19.8819 11.1673 20.5106 11.873 20.7984 12.7814C21.0861 13.6897 20.9784 14.6287 20.5716 15.4126C20.1649 16.1965 19.4592 16.8252 18.5509 17.1129C17.6425 17.4006 16.7035 17.2929 15.9196 16.8862C15.1358 16.4795 14.5071 15.7737 14.2193 14.8654C13.9316 13.957 14.0393 13.018 14.446 12.2341C14.8528 11.4503 15.5585 10.8216 16.4669 10.5338L16.4669 10.5339Z" fill="#7CB342"/>
<path d="M18.1181 15.8331L17.9922 15.4355C17.7852 15.4737 17.6097 15.4804 17.4649 15.4557C17.3201 15.431 17.1793 15.361 17.0436 15.2472C16.9077 15.1325 16.7997 14.975 16.7201 14.7736L17.096 14.5715C17.1945 14.7752 17.2986 14.9149 17.4088 14.9904C17.5653 15.0968 17.7245 15.1328 17.8856 15.0991L17.4847 13.8334C17.3112 13.8543 17.1244 13.8438 16.9229 13.8022C16.7737 13.7714 16.6453 13.7042 16.537 13.6007C16.4287 13.4972 16.3498 13.3662 16.2994 13.207C16.2098 12.9242 16.2375 12.6631 16.382 12.4248C16.4787 12.2638 16.6551 12.1291 16.9101 12.0193L16.8498 11.8292L17.0844 11.7549L17.1446 11.945C17.3824 11.8937 17.5879 11.9033 17.7588 11.9737C17.9787 12.0626 18.1456 12.228 18.2609 12.4687L17.8694 12.6608C17.7965 12.512 17.7095 12.4076 17.6086 12.3483C17.5083 12.2887 17.3891 12.2659 17.251 12.2806L17.6141 13.4272C17.83 13.4144 17.9752 13.4116 18.049 13.4189C18.1899 13.434 18.312 13.4684 18.4143 13.5215C18.5176 13.5751 18.6073 13.6488 18.6827 13.7428C18.7591 13.8372 18.8171 13.9467 18.8567 14.0719C18.9442 14.348 18.9286 14.6053 18.8119 14.8447C18.6954 15.085 18.4994 15.255 18.2254 15.3567L18.3527 15.7588L18.1181 15.8331ZM17.0149 12.3504C16.8677 12.4228 16.7651 12.5234 16.7079 12.6519C16.6506 12.7804 16.6437 12.9129 16.6871 13.0502C16.7299 13.1852 16.8037 13.2872 16.9088 13.3543C17.0139 13.4214 17.1653 13.454 17.3635 13.451L17.0149 12.3504ZM18.1202 15.0248C18.2689 14.957 18.3751 14.8495 18.4398 14.7028C18.5046 14.5561 18.51 14.3975 18.4562 14.2278C18.4106 14.0837 18.3376 13.9791 18.239 13.914C18.1396 13.8492 17.9722 13.8159 17.7367 13.8141L18.1202 15.0248Z" fill="#33691E"/>
<path fill-rule="evenodd" clip-rule="evenodd" d="M8.77996 16.5127H25.2202C25.4507 16.5127 25.6599 16.6067 25.8113 16.7582C25.9628 16.9096 26.0568 17.1188 26.0568 17.3493V25.4604C26.0568 25.6908 25.9628 25.9001 25.8113 26.0515C25.6599 26.203 25.4507 26.297 25.2202 26.297H8.77996C8.54953 26.297 8.34027 26.203 8.18883 26.0515C8.03737 25.9001 7.94336 25.6908 7.94336 25.4604V17.3493C7.94336 17.1188 8.03737 16.9096 8.18883 16.7582C8.34027 16.6067 8.54948 16.5127 8.77996 16.5127Z" fill="#689F38"/>
<path fill-rule="evenodd" clip-rule="evenodd" d="M8.60265 16.9971H10.4606C10.4718 17.0323 10.4818 17.0682 10.4907 17.1045C10.5213 17.2298 10.5375 17.3651 10.5375 17.5089C10.5375 17.976 10.3483 18.3989 10.0422 18.7049C9.7362 19.0109 9.31329 19.2003 8.84619 19.2003C8.72367 19.2003 8.61082 19.1894 8.5082 19.1687L8.49414 19.1658V17.1056C8.49414 17.0763 8.50654 17.0492 8.5264 17.0293C8.5463 17.0094 8.57335 16.9971 8.60265 16.9971ZM8.60265 25.903H10.4606C10.4718 25.8678 10.4818 25.8319 10.4907 25.7956C10.5213 25.6703 10.5375 25.535 10.5375 25.3912C10.5375 24.9241 10.3483 24.5012 10.0422 24.1952C9.7362 23.8892 9.31329 23.6998 8.84619 23.6998C8.72367 23.6998 8.61082 23.7107 8.5082 23.7314L8.49414 23.7343V25.7945C8.49414 25.8238 8.50654 25.8509 8.5264 25.8708C8.5463 25.8907 8.57335 25.903 8.60265 25.903ZM25.3971 25.903H23.5391C23.528 25.8676 23.518 25.8317 23.5091 25.7956C23.4785 25.6703 23.4622 25.535 23.4622 25.3912C23.4622 24.9241 23.6515 24.5012 23.9576 24.1952C24.2636 23.8892 24.6865 23.6998 25.1536 23.6998C25.2761 23.6998 25.389 23.7107 25.4916 23.7314L25.5056 23.7343V25.7945C25.5056 25.8238 25.4933 25.8509 25.4734 25.8708C25.4535 25.8907 25.4264 25.903 25.3971 25.903ZM25.3971 16.9971H23.5391C23.528 17.0325 23.518 17.0684 23.5091 17.1045C23.4785 17.2298 23.4622 17.3651 23.4622 17.5089C23.4622 17.976 23.6515 18.3989 23.9576 18.7049C24.2636 19.0109 24.6865 19.2003 25.1536 19.2003C25.2761 19.2003 25.389 19.1894 25.4916 19.1687L25.5056 19.1658V17.1056C25.5056 17.0763 25.4933 17.0492 25.4734 17.0293C25.4535 17.0094 25.4264 16.9971 25.3971 16.9971Z" fill="#558B2F"/>
<path fill-rule="evenodd" clip-rule="evenodd" d="M17.0004 17.354C18.119 17.354 19.1318 17.8075 19.8649 18.5406C20.5981 19.2737 21.0515 20.2865 21.0515 21.4051C21.0515 22.5238 20.5981 23.5366 19.8649 24.2697C19.1318 25.0029 18.119 25.4563 17.0004 25.4563C15.8817 25.4563 14.8689 25.0029 14.1358 24.2697C13.4027 23.5366 12.9492 22.5238 12.9492 21.4051C12.9492 20.2865 13.4027 19.2737 14.1358 18.5406C14.8689 17.8075 15.8817 17.354 17.0004 17.354Z" fill="#7CB342"/>
<path d="M16.9684 23.8704V23.3808C16.7231 23.3501 16.5243 23.2953 16.3711 23.2164C16.2178 23.1374 16.0849 23.0092 15.9734 22.8337C15.862 22.6572 15.7969 22.4426 15.7793 22.189L16.2716 22.0961C16.3097 22.3589 16.3766 22.5522 16.4732 22.6757C16.6107 22.8504 16.7761 22.947 16.9684 22.9665V21.4077C16.7668 21.3696 16.5615 21.2916 16.3506 21.1736C16.1945 21.0863 16.0747 20.9655 15.9902 20.8113C15.9056 20.6571 15.8638 20.4825 15.8638 20.2864C15.8638 19.9381 15.9874 19.6557 16.2336 19.4402C16.3989 19.2943 16.6442 19.2061 16.9684 19.1735V18.9395H17.2573V19.1735C17.5416 19.2005 17.7682 19.2841 17.9345 19.4235C18.1491 19.6009 18.2773 19.8452 18.321 20.1555L17.8147 20.2316C17.7859 20.0393 17.7255 19.8916 17.6336 19.7895C17.5425 19.6873 17.4171 19.6195 17.2573 19.5869V20.9989C17.5035 21.0612 17.667 21.1095 17.7469 21.1439C17.8992 21.2107 18.0237 21.2925 18.1194 21.3882C18.216 21.4848 18.2903 21.5991 18.3414 21.731C18.3935 21.8638 18.4194 22.0069 18.4194 22.1611C18.4194 22.5011 18.3108 22.7835 18.0952 23.0102C17.8797 23.2377 17.6001 23.3585 17.2573 23.3752V23.8704H16.9684ZM16.9684 19.5814C16.7779 19.6102 16.6274 19.6863 16.5178 19.8099C16.4082 19.9334 16.3534 20.0793 16.3534 20.2484C16.3534 20.4146 16.3998 20.5549 16.4937 20.6673C16.5875 20.7797 16.7454 20.8699 16.9684 20.9367V19.5814ZM17.2573 22.9665C17.4477 22.9433 17.6047 22.8606 17.7292 22.7194C17.8537 22.5782 17.9159 22.4026 17.9159 22.1936C17.9159 22.0162 17.8714 21.8731 17.784 21.7653C17.6958 21.6576 17.5202 21.561 17.2573 21.4755V22.9665Z" fill="#33691E"/>
</g>
<defs>
<clipPath id="clip0_66_2710">
<rect width="34" height="34" fill="white"/>
</clipPath>
</defs>
</svg>
