<svg width="34" height="34" viewBox="0 0 34 34" fill="none" xmlns="http://www.w3.org/2000/svg">
<g clip-path="url(#clip0_66_2735)">
<path fill-rule="evenodd" clip-rule="evenodd" d="M17 0C26.3888 0 34 7.61117 34 17C34 26.3888 26.3888 34 17 34C7.61117 34 0 26.3888 0 17C0 7.61117 7.61117 0 17 0Z" fill="#BFC7F8"/>
<path fill-rule="evenodd" clip-rule="evenodd" d="M22.1338 8.55176L40.9912 27.4092L41.0101 27.4316L41.0279 27.4548L41.0446 27.4791L41.0601 27.5041L41.0745 27.5299L41.0876 27.5566L41.0994 27.5842L41.11 27.6122L41.1192 27.6411L41.127 27.6706L41.1333 27.7009L41.1381 27.7317L22.2807 8.87426L22.2759 8.84346L22.2696 8.8133L22.2618 8.78375L22.2527 8.75486L22.242 8.72669L22.2302 8.69921L22.2171 8.67252L22.2027 8.64664L22.1871 8.62158L22.1705 8.59741L22.1527 8.5741L22.1338 8.55176Z" fill="#AA90F7"/>
<path fill-rule="evenodd" clip-rule="evenodd" d="M22.2812 8.87402L41.1385 27.7315L41.2453 28.547L22.388 9.68958L22.2812 8.87402Z" fill="#AA90F7"/>
<path fill-rule="evenodd" clip-rule="evenodd" d="M24.9043 10.2168L43.7618 29.0743L43.7797 29.0972L24.9222 10.2397L24.9043 10.2168Z" fill="#AA90F7"/>
<path fill-rule="evenodd" clip-rule="evenodd" d="M24.9219 10.2402L43.7791 29.0977L43.7959 29.1214L43.8117 29.146L43.8261 29.1712L43.8394 29.1973L43.8515 29.2239L43.8623 29.2511L43.8718 29.279L43.8801 29.3072L43.8869 29.3361L43.8922 29.3653L43.8962 29.395L43.8987 29.4249L43.8997 29.4553L43.899 29.4858L43.897 29.5166L43.8932 29.5476L25.0359 10.6901L25.0396 10.6592L25.0417 10.6284L25.0422 10.5978L25.0414 10.5676L25.0389 10.5376L25.0349 10.5079L25.0295 10.4787L25.0228 10.4499L25.0145 10.4215L25.005 10.3937L24.9943 10.3665L24.9821 10.3398L24.9689 10.3138L24.9544 10.2885L24.9386 10.264L24.9219 10.2402Z" fill="#AA90F7"/>
<path fill-rule="evenodd" clip-rule="evenodd" d="M25.0358 10.6899L43.8932 29.5474L43.5595 31.8293L24.7021 12.9719L25.0358 10.6899Z" fill="#AA90F7"/>
<path fill-rule="evenodd" clip-rule="evenodd" d="M26.0635 13.3433L44.9209 32.2007L44.9512 32.2392L44.9796 32.2793L45.0064 32.3206L45.0309 32.3634L45.0535 32.4073L45.0739 32.4524L45.0922 32.4987L45.1083 32.5462L45.1221 32.5945L45.1335 32.6438L45.1425 32.694L45.149 32.7449L45.1529 32.7966L45.1543 32.8489L26.2969 13.9915L26.2956 13.9391L26.2916 13.8874L26.2851 13.8365L26.2761 13.7863L26.2647 13.7371L26.2509 13.6887L26.2348 13.6414L26.2165 13.5951L26.1961 13.5499L26.1735 13.5059L26.1488 13.4632L26.1222 13.4218L26.0939 13.3818L26.0635 13.3433Z" fill="#AA90F7"/>
<path fill-rule="evenodd" clip-rule="evenodd" d="M26.2969 13.9917L45.1543 32.8491V34.7815L26.2969 15.924V13.9917Z" fill="#AA90F7"/>
<path fill-rule="evenodd" clip-rule="evenodd" d="M26.2969 15.9243L45.1543 34.7818V36.0193L26.2969 17.1617V15.9243Z" fill="#AA90F7"/>
<path fill-rule="evenodd" clip-rule="evenodd" d="M26.2969 17.1611L45.1543 36.0187V36.0271L26.2969 17.1696V17.1611Z" fill="#AA90F7"/>
<path fill-rule="evenodd" clip-rule="evenodd" d="M26.2969 17.1699L45.1543 36.0275V36.7968L26.2969 17.9394V17.1699Z" fill="#AA90F7"/>
<path fill-rule="evenodd" clip-rule="evenodd" d="M26.2969 17.9395L45.1543 36.7969V39.6199L26.2969 20.7624V17.9395Z" fill="#AA90F7"/>
<path fill-rule="evenodd" clip-rule="evenodd" d="M26.2969 20.7622L45.1543 39.6195V40.3888L26.2969 21.5315V20.7622Z" fill="#AA90F7"/>
<path fill-rule="evenodd" clip-rule="evenodd" d="M26.2969 21.5317L45.1543 40.3891V40.3976L26.2969 21.5402V21.5317Z" fill="#AA90F7"/>
<path fill-rule="evenodd" clip-rule="evenodd" d="M26.2969 21.54L45.1543 40.3974V40.8759L26.2969 22.0185V21.54Z" fill="#AA90F7"/>
<path fill-rule="evenodd" clip-rule="evenodd" d="M26.2969 22.0186L45.1543 40.8759V43.5674L26.2969 24.71V22.0186Z" fill="#AA90F7"/>
<path fill-rule="evenodd" clip-rule="evenodd" d="M26.2973 24.71L45.1547 43.5675L45.1534 43.6197L45.1494 43.6715L45.1429 43.7224L45.134 43.7726L45.1225 43.8218L45.1087 43.8703L45.0926 43.9176L45.0744 43.9639L45.054 44.0091L45.0314 44.0531L45.0068 44.0957L44.9801 44.1371L44.9517 44.1771L44.9213 44.2156L44.8893 44.2528L44.8554 44.2881L44.82 44.322L44.7828 44.354L44.7443 44.3844L44.7043 44.4128L44.663 44.4394L44.6203 44.4641L44.5763 44.4867L44.5312 44.5071L44.4848 44.5254L44.4375 44.5415L44.3891 44.5553L44.3399 44.5667L44.2898 44.5757L44.2388 44.5821L44.187 44.5861L44.1347 44.5875L25.2773 25.73L25.3296 25.7286L25.3813 25.7247L25.4322 25.7182L25.4824 25.7092L25.5317 25.6978L25.5802 25.684L25.6275 25.6679L25.6738 25.6496L25.7189 25.629L25.7628 25.6065L25.8056 25.5819L25.8469 25.5553L25.887 25.5269L25.9255 25.4965L25.9625 25.4643L25.998 25.4306L26.0319 25.3951L26.0639 25.3581L26.0943 25.3196L26.1227 25.2796L26.1493 25.2382L26.174 25.1954L26.1966 25.1514L26.217 25.1062L26.2353 25.0601L26.2514 25.0126L26.2651 24.9643L26.2766 24.915L26.2856 24.8649L26.292 24.8139L26.296 24.7623L26.2973 24.71Z" fill="#AA90F7"/>
<path fill-rule="evenodd" clip-rule="evenodd" d="M25.2773 25.73L44.1347 44.5875H27.581L8.72363 25.73H25.2773Z" fill="#AA90F7"/>
<path fill-rule="evenodd" clip-rule="evenodd" d="M8.72342 25.73L27.5808 44.5874L27.5285 44.5861L27.4768 44.5821L27.4259 44.5756L27.3757 44.5666L27.3264 44.5552L27.2781 44.5414L27.2306 44.5253L27.1843 44.507L27.1392 44.4866L27.0953 44.464L27.0525 44.4393L27.0112 44.4127L26.9712 44.3843L26.9326 44.354L8.0752 25.4966L8.11374 25.527L8.15377 25.5554L8.19516 25.5819L8.23786 25.6065L8.28185 25.6291L8.32701 25.6496L8.37329 25.6679L8.42066 25.684L8.46898 25.6978L8.51827 25.7092L8.56843 25.7182L8.61938 25.7247L8.67108 25.7287L8.72342 25.73Z" fill="#AA90F7"/>
<path fill-rule="evenodd" clip-rule="evenodd" d="M12.728 8.27694L17.1861 8.92883L21.6006 8.35108C21.7663 8.32941 21.9256 8.37731 22.0487 8.47194C22.1718 8.56655 22.2591 8.70816 22.2808 8.87386L22.3876 9.68941L24.5234 10.0017C24.6887 10.0259 24.829 10.1153 24.9217 10.2399C25.0145 10.3644 25.06 10.5244 25.0358 10.6897L24.7022 12.9717H25.2769C25.8387 12.9717 26.2969 13.4299 26.2969 13.9917V24.71C26.2969 25.2718 25.8387 25.73 25.2769 25.73H8.72318C8.1613 25.73 7.70312 25.2719 7.70312 24.71V13.9917C7.70312 13.4298 8.16128 12.9717 8.72318 12.9717H9.57102L9.25778 10.5782C9.23611 10.4125 9.28401 10.2532 9.37864 10.1301C9.47327 10.007 9.61488 9.91966 9.78056 9.89798L11.9188 9.61816L12.04 8.78939C12.0642 8.62404 12.1536 8.48376 12.2781 8.39102C12.4026 8.29825 12.5626 8.25275 12.728 8.27692V8.27694Z" fill="#AA90F7"/>
<path fill-rule="evenodd" clip-rule="evenodd" d="M12.728 8.27644L24.5234 10.0012C24.6887 10.0254 24.829 10.1148 24.9218 10.2394C25.0145 10.3639 25.06 10.5239 25.0358 10.6892L24.1849 16.5087C24.1607 16.6741 24.0713 16.8143 23.9468 16.9071C23.8223 16.9999 23.6622 17.0454 23.4969 17.0212L11.7015 15.2964C11.5362 15.2722 11.3959 15.1828 11.3031 15.0583C11.2104 14.9337 11.1648 14.7737 11.189 14.6084L12.04 8.7889C12.0642 8.62356 12.1536 8.48328 12.2781 8.39054C12.4027 8.29777 12.5626 8.25225 12.728 8.27644Z" fill="#33691E"/>
<path fill-rule="evenodd" clip-rule="evenodd" d="M12.6989 8.47644C12.5923 8.46085 12.4852 8.48835 12.3989 8.55265C12.3126 8.61695 12.2556 8.71168 12.24 8.81824L11.389 14.6377C11.3734 14.7442 11.4009 14.8513 11.4652 14.9377C11.5295 15.024 11.6243 15.081 11.7309 15.0966L23.5263 16.8214C23.6329 16.837 23.7399 16.8095 23.8263 16.7451C23.9126 16.6808 23.9696 16.5861 23.9852 16.4795L24.8361 10.6601C24.8517 10.5536 24.8242 10.4465 24.7599 10.3602C24.6956 10.2738 24.6009 10.2168 24.4943 10.2012L12.6989 8.47644Z" fill="#689F38"/>
<path fill-rule="evenodd" clip-rule="evenodd" d="M12.5504 8.60578L13.8835 8.8007C13.8878 8.82718 13.8912 8.85392 13.8938 8.88092C13.9026 8.97405 13.9001 9.07283 13.885 9.17598C13.836 9.51113 13.6558 9.79467 13.4041 9.98215C13.1524 10.1696 12.8292 10.2611 12.494 10.212C12.4061 10.1992 12.3263 10.1795 12.2548 10.1539L12.245 10.1504L12.4612 8.67223C12.4643 8.6512 12.476 8.6331 12.4923 8.62092C12.5087 8.60873 12.5294 8.60269 12.5504 8.60578ZM11.6161 14.9955L12.9492 15.1904C12.9609 15.1661 12.9718 15.1415 12.982 15.1165C13.0171 15.0298 13.043 14.9344 13.058 14.8312C13.1071 14.4961 13.0156 14.1729 12.8281 13.9212C12.6407 13.6695 12.3571 13.4893 12.022 13.4403C11.9341 13.4275 11.8519 13.4234 11.7761 13.4275L11.7658 13.4281L11.5496 14.9062C11.5465 14.9273 11.5526 14.948 11.5648 14.9643C11.577 14.9807 11.5951 14.9924 11.6161 14.9955ZM23.6658 16.7575L22.3327 16.5625C22.3284 16.5359 22.325 16.5092 22.3225 16.4823C22.3136 16.3892 22.3161 16.2904 22.3313 16.1873C22.3802 15.8521 22.5604 15.5686 22.8121 15.3811C23.0638 15.1937 23.3871 15.1022 23.7222 15.1512C23.8101 15.1641 23.8899 15.1837 23.9614 15.2093L23.9712 15.2129L23.755 16.691C23.752 16.712 23.7402 16.7302 23.7239 16.7423C23.7075 16.7545 23.6868 16.7605 23.6658 16.7575ZM24.6001 10.3677L23.2671 10.1728C23.2553 10.1971 23.2444 10.2217 23.2342 10.2467C23.1992 10.3334 23.1733 10.4288 23.1582 10.5319C23.1092 10.8671 23.2006 11.1903 23.3881 11.442C23.5755 11.6937 23.8591 11.8739 24.1942 11.9229C24.2821 11.9358 24.3643 11.9398 24.4401 11.9357L24.4505 11.9351L24.6666 10.457C24.6697 10.4359 24.6636 10.4152 24.6514 10.3989C24.6392 10.3825 24.6212 10.3708 24.6001 10.3677ZM18.5379 9.74279C19.3405 9.86014 20.0195 10.2917 20.4686 10.8947C20.9177 11.4976 21.1368 12.2718 21.0194 13.0744C20.9021 13.877 20.4705 14.5561 19.8676 15.0051C19.2646 15.4542 18.4904 15.6733 17.6878 15.556C16.8852 15.4386 16.2062 15.007 15.7571 14.4041C15.308 13.8012 15.0889 13.0269 15.2062 12.2244C15.3236 11.4218 15.7552 10.7427 16.3581 10.2936C16.961 9.84452 17.7353 9.62541 18.5379 9.74279Z" fill="#33691E"/>
<path d="M17.831 14.4147L17.8823 14.0635C17.7096 14.0158 17.5727 13.9556 17.471 13.8828C17.3693 13.8101 17.2874 13.7042 17.2259 13.5665C17.1644 13.4282 17.1403 13.2674 17.1542 13.0836L17.5172 13.0686C17.517 13.2612 17.5447 13.4069 17.601 13.5057C17.6814 13.6454 17.7898 13.7321 17.9258 13.7662L18.0893 12.6478C17.9487 12.5994 17.8096 12.5218 17.6707 12.4151C17.5678 12.336 17.4945 12.2368 17.4501 12.1173C17.4056 11.9978 17.3939 11.8681 17.4145 11.7275C17.451 11.4776 17.5693 11.2879 17.7685 11.1591C17.9025 11.0718 18.0877 11.0342 18.3237 11.0449L18.3483 10.877L18.5556 10.9073L18.531 11.0752C18.7321 11.1243 18.886 11.2081 18.9907 11.3255C19.126 11.4754 19.1924 11.6641 19.1911 11.8913L18.8199 11.8928C18.8194 11.7518 18.7916 11.6395 18.7363 11.5566C18.6817 11.4737 18.5989 11.4119 18.4876 11.3718L18.3395 12.3849C18.5096 12.4554 18.6218 12.5072 18.6756 12.5402C18.7778 12.6042 18.8586 12.6759 18.9172 12.7546C18.9764 12.834 19.0177 12.9238 19.0405 13.0238C19.0639 13.1246 19.0676 13.23 19.0514 13.3406C19.0157 13.5846 18.9081 13.7758 18.7297 13.9158C18.5512 14.0565 18.3379 14.1138 18.0902 14.0898L18.0382 14.4451L17.831 14.4147V14.4147ZM18.2809 11.3375C18.1413 11.3382 18.0253 11.377 17.9337 11.4542C17.8421 11.5313 17.7875 11.6302 17.7697 11.7515C17.7523 11.8708 17.7709 11.9763 17.8264 12.0668C17.8819 12.1573 17.9858 12.2385 18.1387 12.3099L18.2809 11.3375ZM18.1331 13.7965C18.2721 13.7998 18.3935 13.757 18.4976 13.6688C18.6017 13.5805 18.6648 13.4611 18.6867 13.3111C18.7053 13.1838 18.6884 13.0765 18.637 12.99C18.585 12.9034 18.4692 12.8157 18.2895 12.7268L18.1331 13.7965Z" fill="#E6EE9C"/>
<path fill-rule="evenodd" clip-rule="evenodd" d="M9.78085 9.89775L21.6009 8.35087C21.7665 8.32917 21.9258 8.37708 22.049 8.47171C22.1721 8.56632 22.2594 8.70793 22.281 8.87362L23.0442 14.7052C23.0659 14.8709 23.018 15.0302 22.9234 15.1533C22.8287 15.2765 22.6871 15.3637 22.5215 15.3854L10.7015 16.9323C10.5358 16.954 10.3765 16.9061 10.2534 16.8115C10.1303 16.7168 10.043 16.5752 10.0213 16.4095L9.25809 10.578C9.23639 10.4123 9.28432 10.253 9.37895 10.1299C9.47358 10.0067 9.61517 9.91943 9.78085 9.89775Z" fill="#33691E"/>
<path fill-rule="evenodd" clip-rule="evenodd" d="M9.80624 10.0982C9.69941 10.1122 9.60387 10.1677 9.53826 10.2531C9.47268 10.3384 9.44356 10.4451 9.45752 10.5519L10.2207 16.3835C10.2347 16.4903 10.2903 16.5858 10.3756 16.6514C10.461 16.717 10.5676 16.7461 10.6744 16.7322L22.4944 15.1853C22.6013 15.1713 22.6968 15.1157 22.7624 15.0304C22.828 14.945 22.8571 14.8384 22.8431 14.7316L22.0799 8.89997C22.066 8.79317 22.0104 8.6976 21.925 8.63202C21.8397 8.56641 21.733 8.53729 21.6262 8.55129L9.80624 10.0982Z" fill="#689F38"/>
<path fill-rule="evenodd" clip-rule="evenodd" d="M9.69832 10.2625L11.0342 10.0877C11.0455 10.1121 11.0561 10.137 11.0659 10.1621C11.0997 10.2493 11.1241 10.3451 11.1376 10.4484C11.1816 10.7843 11.0853 11.1061 10.894 11.355C10.7028 11.6038 10.4166 11.7797 10.0807 11.8236C9.99264 11.8351 9.91046 11.838 9.83476 11.8327L9.82436 11.832L9.63052 10.3507C9.62775 10.3297 9.63413 10.309 9.64655 10.2929C9.65896 10.2767 9.67726 10.2653 9.69832 10.2625ZM10.5363 16.6655L11.8721 16.4907C11.8768 16.4643 11.8806 16.4376 11.8836 16.4107C11.8938 16.3177 11.8928 16.2189 11.8793 16.1155C11.8353 15.7796 11.6594 15.4934 11.4106 15.3022C11.1618 15.111 10.8399 15.0147 10.5041 15.0586C10.416 15.0701 10.3359 15.0886 10.2641 15.1131L10.2542 15.1165L10.4481 16.5977C10.4508 16.6188 10.4623 16.6371 10.4784 16.6495C10.4946 16.662 10.5152 16.6683 10.5363 16.6655ZM22.611 15.0853L21.2752 15.2601C21.2638 15.2357 21.2532 15.2109 21.2435 15.1857C21.2097 15.0985 21.1853 15.0028 21.1717 14.8994C21.1278 14.5635 21.2241 14.2417 21.4154 13.9929C21.6066 13.7441 21.8928 13.5682 22.2286 13.5242C22.3167 13.5127 22.3989 13.5099 22.4746 13.5151L22.485 13.5159L22.6788 14.9971C22.6816 15.0182 22.6752 15.0388 22.6628 15.0549C22.6504 15.0711 22.6321 15.0825 22.611 15.0853H22.611ZM21.773 8.68228L20.4371 8.85709C20.4324 8.88364 20.4286 8.91034 20.4257 8.93714C20.4154 9.03015 20.4165 9.12896 20.43 9.23232C20.474 9.56817 20.6498 9.85438 20.8987 10.0456C21.1475 10.2368 21.4694 10.3332 21.8052 10.2892C21.8933 10.2777 21.9734 10.2592 22.0452 10.2347L22.055 10.2313L21.8612 8.75008C21.8584 8.72899 21.847 8.71073 21.8308 8.69828C21.8147 8.68586 21.7941 8.67952 21.773 8.68228ZM15.7693 9.72896C16.5735 9.6237 17.3444 9.85443 17.9404 10.3126C18.5365 10.7707 18.9578 11.4562 19.0631 12.2604C19.1683 13.0647 18.9376 13.8356 18.4795 14.4316C18.0214 15.0277 17.3359 15.449 16.5316 15.5543C15.7274 15.6595 14.9565 15.4288 14.3604 14.9707C13.7644 14.5126 13.343 13.8271 13.2378 13.0228C13.1325 12.2185 13.3633 11.4477 13.8214 10.8516C14.2795 10.2555 14.965 9.83421 15.7693 9.72896Z" fill="#33691E"/>
<path d="M16.3606 14.4171L16.3145 14.0651C16.1353 14.0661 15.9872 14.0455 15.8696 14.0031C15.7519 13.9608 15.6443 13.8811 15.5477 13.7654C15.4509 13.6489 15.384 13.5008 15.3474 13.3201L15.6927 13.207C15.7448 13.3924 15.8111 13.525 15.8922 13.6048C16.0074 13.7174 16.1354 13.7713 16.2755 13.7672L16.1288 12.6465C15.9803 12.6381 15.8254 12.6013 15.6626 12.5363C15.5422 12.4882 15.4447 12.4127 15.3694 12.3098C15.2941 12.2069 15.2476 12.0852 15.2292 11.9443C15.1964 11.6938 15.2587 11.4792 15.4154 11.3011C15.5206 11.1806 15.6886 11.0941 15.9186 11.0402L15.8966 10.8719L16.1043 10.8447L16.1263 11.013C16.3333 11.0057 16.5041 11.0444 16.6367 11.129C16.8077 11.2364 16.9229 11.4 16.9835 11.6189L16.6266 11.7213C16.5878 11.5858 16.5305 11.4853 16.4548 11.4205C16.3797 11.3555 16.2832 11.3186 16.1652 11.3103L16.2981 12.3254C16.4809 12.3471 16.603 12.3664 16.6637 12.3836C16.7795 12.4173 16.8767 12.4644 16.9545 12.5242C17.0331 12.5845 17.0973 12.6597 17.1464 12.7497C17.1963 12.8404 17.2285 12.9408 17.243 13.0517C17.275 13.2961 17.2234 13.5093 17.0898 13.6926C16.9563 13.8765 16.7665 13.9896 16.5217 14.0339L16.5683 14.3899L16.3606 14.4171ZM15.957 11.3334C15.8228 11.3721 15.7217 11.441 15.6545 11.5401C15.5874 11.6393 15.5617 11.7493 15.5776 11.8708C15.5932 11.9904 15.6398 12.0869 15.7179 12.1589C15.7959 12.2309 15.9179 12.2808 16.0845 12.3079L15.957 11.3334ZM16.4832 13.7401C16.618 13.7054 16.7231 13.6312 16.7993 13.518C16.8755 13.4048 16.9037 13.2727 16.8841 13.1224C16.8674 12.9948 16.8218 12.8962 16.7489 12.8269C16.6753 12.7577 16.54 12.7048 16.3429 12.6681L16.4832 13.7401H16.4832Z" fill="#E6EE9C"/>
<path fill-rule="evenodd" clip-rule="evenodd" d="M18.5488 15.9238H26.2962V22.0182H18.5488V15.9238Z" fill="#3E2723"/>
<path d="M8.72316 12.9717H25.2768C25.8387 12.9717 26.2969 13.4298 26.2969 13.9917V17.17H21.2341C21.0221 17.17 20.8297 17.2565 20.6904 17.3957C20.5512 17.535 20.4647 17.7274 20.4647 17.9394V20.7623C20.4647 20.9742 20.5512 21.1667 20.6904 21.3059C20.8297 21.4452 21.0221 21.5317 21.234 21.5317H26.2969V24.71C26.2969 25.2718 25.8387 25.73 25.2768 25.73H8.72316C8.1613 25.73 7.70312 25.2718 7.70312 24.71V13.9917C7.70312 13.4298 8.16126 12.9717 8.72316 12.9717Z" fill="#6D4C41"/>
<path d="M26.2359 17.8784H21.0052C20.9888 17.8784 20.9737 17.8854 20.9625 17.8966C20.9513 17.9078 20.9443 17.9229 20.9443 17.9393V20.7622C20.9443 20.7786 20.9513 20.7938 20.9625 20.8049C20.9737 20.8161 20.9888 20.8231 21.0052 20.8231H26.2359C26.2522 20.8231 26.2674 20.8161 26.2786 20.8049C26.2898 20.7937 26.2967 20.7786 26.2967 20.7622V17.9393C26.2967 17.9229 26.2898 17.9078 26.2786 17.8966C26.2674 17.8854 26.2522 17.8784 26.2359 17.8784ZM22.9053 18.4538C23.1523 18.4538 23.3766 18.5546 23.539 18.7171C23.7015 18.8795 23.8023 19.1038 23.8023 19.3507C23.8023 19.5977 23.7015 19.822 23.539 19.9844C23.3766 20.1469 23.1523 20.2477 22.9053 20.2477C22.6584 20.2477 22.4341 20.1469 22.2716 19.9844C22.1092 19.822 22.0084 19.5977 22.0084 19.3507C22.0084 19.1038 22.1092 18.8795 22.2716 18.7171C22.4341 18.5546 22.6584 18.4538 22.9053 18.4538Z" fill="#8D6E63"/>
</g>
<defs>
<clipPath id="clip0_66_2735">
<rect width="34" height="34" fill="white"/>
</clipPath>
</defs>
</svg>
