<svg width="34" height="34" viewBox="0 0 34 34" fill="none" xmlns="http://www.w3.org/2000/svg">
<g clip-path="url(#clip0_66_2771)">
<path fill-rule="evenodd" clip-rule="evenodd" d="M17 0C26.3888 0 34 7.61117 34 17C34 26.3888 26.3888 34 17 34C7.61117 34 0 26.3888 0 17C0 7.61117 7.61117 0 17 0Z" fill="#BFC7F8"/>
<path fill-rule="evenodd" clip-rule="evenodd" d="M26.1084 11.126L44.9657 29.9834L44.9902 30.0146L45.0131 30.047L45.0347 30.0803L45.0546 30.115L45.0729 30.1506L45.0895 30.1871L45.1043 30.2244L45.1172 30.2628L45.1284 30.302L45.1377 30.3418L45.145 30.3823L45.1501 30.4235L45.1534 30.4653L45.1544 30.5077L26.2972 11.6503L26.2962 11.608L26.2928 11.5661L26.2877 11.5249L26.2804 11.4844L26.2711 11.4445L26.26 11.4054L26.247 11.367L26.2321 11.3296L26.2156 11.2931L26.1974 11.2575L26.1775 11.223L26.1559 11.1895L26.133 11.1572L26.1084 11.126Z" fill="#AA90F7"/>
<path fill-rule="evenodd" clip-rule="evenodd" d="M26.2969 11.6504L45.1543 30.5077V38.5065L26.2969 19.6491V11.6504Z" fill="#AA90F7"/>
<path fill-rule="evenodd" clip-rule="evenodd" d="M26.2967 19.6489L45.154 38.5062L45.153 38.5485L45.1497 38.5904L45.1445 38.6315L45.1372 38.6722L45.1279 38.7121L45.1168 38.7511L45.1039 38.7894L45.0891 38.8269L45.0725 38.8635L45.0542 38.899L45.0343 38.9335L45.0127 38.967L44.9898 38.9994L44.9652 39.0305L44.9393 39.0605L44.912 39.0891L26.0547 20.2318L26.0821 20.2032L26.108 20.1732L26.1325 20.142L26.1555 20.1096L26.177 20.0762L26.197 20.0417L26.2152 20.0062L26.2317 19.9695L26.2466 19.9321L26.2595 19.8938L26.2707 19.8546L26.28 19.8148L26.2873 19.7743L26.2924 19.7331L26.2957 19.6913L26.2967 19.6489Z" fill="#AA90F7"/>
<path fill-rule="evenodd" clip-rule="evenodd" d="M26.0548 20.2319L44.912 39.0893L44.8968 39.1044L44.881 39.1189L44.8649 39.1331L44.8483 39.1469L44.8315 39.1602L44.8143 39.1732L44.7967 39.1856L44.7789 39.1976L44.7606 39.2092L44.7422 39.2201L44.7233 39.2308L44.7042 39.2411L44.6848 39.2507L44.665 39.2598L44.6451 39.2685L44.6248 39.2766L25.7676 20.419L25.7878 20.4111L25.8078 20.4023L25.8275 20.3931L25.8469 20.3835L25.866 20.3734L25.8849 20.3628L25.9034 20.3516L25.9216 20.3402L25.9394 20.3281L25.957 20.3156L25.9743 20.3028L25.991 20.2894L26.0076 20.2758L26.0237 20.2615L26.0393 20.2469L26.0548 20.2319Z" fill="#AA90F7"/>
<path fill-rule="evenodd" clip-rule="evenodd" d="M25.7676 20.4189L44.6251 39.2765V41.1973L25.7676 22.3397V20.4189Z" fill="#AA90F7"/>
<path fill-rule="evenodd" clip-rule="evenodd" d="M25.7673 22.3398L44.6248 41.1975L44.6237 41.2403L44.6205 41.2825L44.6152 41.3242L44.6079 41.3653L44.5984 41.4055L44.5872 41.4452L44.574 41.4839L44.5591 41.5217L44.5423 41.5588L44.5239 41.5946L44.5038 41.6296L44.4821 41.6635L44.4587 41.6962L44.4339 41.7278L44.4077 41.758L44.3801 41.787L25.5225 22.9295L25.5502 22.9005L25.5764 22.8703L25.6012 22.8387L25.6246 22.806L25.6463 22.7721L25.6664 22.7371L25.6848 22.7013L25.7016 22.6642L25.7165 22.6264L25.7296 22.5875L25.7409 22.548L25.7502 22.5077L25.7577 22.4667L25.763 22.425L25.7662 22.3827L25.7673 22.3398Z" fill="#AA90F7"/>
<path fill-rule="evenodd" clip-rule="evenodd" d="M25.5221 22.9292L44.3798 41.7865L44.3508 41.814L44.3205 41.8403L44.289 41.8652L44.2563 41.8884L44.2224 41.9101L44.1874 41.9302L44.1515 41.9487L44.1145 41.9654L44.0767 41.9804L44.0378 41.9937L43.9983 42.0049L43.958 42.0142L43.917 42.0215L43.8753 42.0269L43.833 42.0302L43.7901 42.0312L24.9326 23.1739L24.9754 23.1729L25.0178 23.1696L25.0595 23.1643L25.1005 23.157L25.1408 23.1475L25.1803 23.1362L25.2192 23.1231L25.257 23.1082L25.2939 23.0914L25.3299 23.073L25.3649 23.0529L25.3988 23.0311L25.4315 23.0079L25.4629 22.983L25.4933 22.9568L25.5221 22.9292Z" fill="#AA90F7"/>
<path fill-rule="evenodd" clip-rule="evenodd" d="M24.9338 23.1743L43.7912 42.0318H27.3955L8.53809 23.1743H24.9338Z" fill="#AA90F7"/>
<path fill-rule="evenodd" clip-rule="evenodd" d="M8.5381 23.1743L27.3955 42.0318L27.3527 42.0308L27.3104 42.0275L27.2687 42.0222L27.2277 42.0149L27.1873 42.0056L27.1478 41.9943L27.109 41.981L27.0711 41.9661L27.0343 41.9493L26.9983 41.9309L26.9634 41.9108L26.9295 41.889L26.8967 41.8658L26.8653 41.8409L8.00781 22.9834L8.03932 23.0083L8.07206 23.0315L8.10591 23.0533L8.14086 23.0734L8.17682 23.0918L8.21375 23.1086L8.25164 23.1235L8.29039 23.1366L8.32993 23.1479L8.37026 23.1574L8.4113 23.1647L8.45298 23.17L8.49525 23.1733L8.5381 23.1743Z" fill="#AA90F7"/>
<path fill-rule="evenodd" clip-rule="evenodd" d="M9.25937 10.8252H25.4719C25.6992 10.8252 25.9055 10.9179 26.0549 11.0672C26.2042 11.2166 26.2969 11.4229 26.2969 11.6502V19.6489C26.2969 19.8762 26.2042 20.0825 26.0549 20.2319C25.9732 20.3136 25.8754 20.3773 25.7677 20.419V22.3398C25.7677 22.5696 25.6739 22.7783 25.5229 22.9294C25.3718 23.0804 25.1631 23.1741 24.9333 23.1741H8.53749C8.30767 23.1741 8.09896 23.0804 7.94793 22.9293C7.79689 22.7783 7.70312 22.5696 7.70312 22.3398V14.2507C7.70312 14.0209 7.79689 13.8121 7.94793 13.6612C8.07601 13.533 8.2456 13.4461 8.43436 13.4227V11.6502C8.43436 11.4229 8.52706 11.2166 8.67641 11.0672C8.82574 10.9179 9.0321 10.8252 9.25937 10.8252Z" fill="#AA90F7"/>
<path fill-rule="evenodd" clip-rule="evenodd" d="M9.25959 10.8252H25.4721C25.6994 10.8252 25.9057 10.9179 26.0551 11.0672C26.2044 11.2166 26.2971 11.4229 26.2971 11.6502V19.6489C26.2971 19.8762 26.2044 20.0825 26.0551 20.2319C25.9057 20.3812 25.6994 20.4739 25.4721 20.4739H9.25959C9.03233 20.4739 8.82597 20.3812 8.67662 20.2319C8.52727 20.0825 8.43457 19.8762 8.43457 19.6489V11.6502C8.43457 11.4229 8.52727 11.2166 8.67662 11.0673C8.82597 10.9179 9.03231 10.8252 9.25959 10.8252Z" fill="#558B2F"/>
<path fill-rule="evenodd" clip-rule="evenodd" d="M8.53747 13.4165H24.9333C25.1631 13.4165 25.3718 13.5103 25.5228 13.6613C25.6739 13.8123 25.7676 14.021 25.7676 14.2508V22.34C25.7676 22.5698 25.6739 22.7785 25.5228 22.9296C25.3718 23.0806 25.1631 23.1743 24.9333 23.1743H8.53747C8.30764 23.1743 8.09896 23.0806 7.94791 22.9296C7.79689 22.7785 7.70312 22.5698 7.70312 22.34V14.2508C7.70312 14.021 7.79689 13.8123 7.94791 13.6613C8.09896 13.5103 8.3076 13.4165 8.53747 13.4165Z" fill="#33691E"/>
<path fill-rule="evenodd" clip-rule="evenodd" d="M8.53798 13.6943C8.38978 13.6943 8.24956 13.7531 8.14485 13.8578C8.04016 13.9625 7.98145 14.1027 7.98145 14.2509V22.34C7.98145 22.4882 8.04016 22.6284 8.14487 22.7331C8.24956 22.8378 8.38979 22.8966 8.538 22.8966H24.9338C25.082 22.8966 25.2222 22.8378 25.3269 22.7331C25.4316 22.6284 25.4903 22.4882 25.4903 22.34V14.2509C25.4903 14.1027 25.4316 13.9625 25.3269 13.8578C25.2222 13.7531 25.082 13.6943 24.9338 13.6943H8.53798Z" fill="#689F38"/>
<path fill-rule="evenodd" clip-rule="evenodd" d="M8.36018 13.8994H10.2131C10.2243 13.9348 10.2343 13.9705 10.2431 14.0065C10.2736 14.1315 10.2898 14.2665 10.2898 14.4098C10.2898 14.8757 10.1011 15.2974 9.79583 15.6027C9.49064 15.9078 9.0689 16.0966 8.60304 16.0966C8.48085 16.0966 8.3683 16.0858 8.26598 16.0652L8.25195 16.0623V14.0076C8.25195 13.9784 8.2643 13.9514 8.28411 13.9316C8.30395 13.9117 8.33093 13.8994 8.36018 13.8994ZM8.36018 22.7813H10.2131C10.2243 22.7459 10.2343 22.7102 10.2431 22.6742C10.2736 22.5492 10.2898 22.4142 10.2898 22.2708C10.2898 21.805 10.1011 21.3833 9.79583 21.078C9.49064 20.7729 9.0689 20.584 8.60304 20.584C8.48085 20.584 8.3683 20.5949 8.26598 20.6155L8.25195 20.6184V22.6731C8.25195 22.7023 8.2643 22.7293 8.28411 22.7491C8.30395 22.7689 8.33093 22.7813 8.36018 22.7813ZM25.1094 22.7813H23.2564C23.2453 22.7459 23.2353 22.7102 23.2264 22.6742C23.1959 22.5492 23.1797 22.4142 23.1797 22.2708C23.1797 21.805 23.3685 21.3833 23.6737 21.078C23.9789 20.7729 24.4006 20.584 24.8665 20.584C24.9887 20.584 25.1012 20.5949 25.2036 20.6155L25.2176 20.6184V22.6731C25.2176 22.7023 25.2052 22.7293 25.1854 22.7491C25.1656 22.7689 25.1386 22.7813 25.1094 22.7813H25.1094ZM25.1094 13.8994H23.2564C23.2453 13.9346 23.2353 13.9703 23.2265 14.0065C23.1959 14.1315 23.1797 14.2665 23.1797 14.4098C23.1797 14.8757 23.3685 15.2974 23.6737 15.6027C23.9789 15.9078 24.4006 16.0966 24.8665 16.0966C24.9887 16.0966 25.1012 16.0858 25.2036 16.0652L25.2176 16.0623V14.0076C25.2176 13.9784 25.2052 13.9514 25.1854 13.9316C25.1656 13.9117 25.1386 13.8994 25.1094 13.8994H25.1094ZM16.7347 14.2553C17.8503 14.2553 18.8604 14.7075 19.5915 15.4387C20.3227 16.1698 20.7749 17.1799 20.7749 18.2955C20.7749 19.4111 20.3227 20.4212 19.5915 21.1523C18.8604 21.8835 17.8503 22.3357 16.7347 22.3357C15.6191 22.3357 14.6091 21.8835 13.8779 21.1523C13.1468 20.4212 12.6945 19.4111 12.6945 18.2955C12.6945 17.1799 13.1468 16.1698 13.8779 15.4387C14.6091 14.7075 15.6191 14.2553 16.7347 14.2553Z" fill="#33691E"/>
<path d="M16.7034 20.7545V20.2662C16.4589 20.2357 16.2606 20.181 16.1077 20.1023C15.9549 20.0235 15.8224 19.8957 15.7112 19.7206C15.6 19.5446 15.5352 19.3305 15.5176 19.0776L16.0086 18.985C16.0466 19.2472 16.1133 19.4399 16.2096 19.5631C16.3467 19.7372 16.5117 19.8336 16.7034 19.853V18.2985C16.5024 18.2605 16.2977 18.1827 16.0874 18.065C15.9317 17.9779 15.8122 17.8575 15.7279 17.7037C15.6436 17.5499 15.6019 17.3757 15.6019 17.1802C15.6019 16.8328 15.7251 16.5512 15.9706 16.3363C16.1355 16.1908 16.3801 16.1028 16.7034 16.0704V15.8369H16.9916V16.0704C17.275 16.0972 17.5011 16.1806 17.6669 16.3196C17.8809 16.4965 18.0088 16.7402 18.0523 17.0496L17.5474 17.1256C17.5187 16.9338 17.4585 16.7865 17.3668 16.6846C17.276 16.5827 17.1509 16.5151 16.9916 16.4826V17.8908C17.2371 17.9529 17.4001 18.0011 17.4798 18.0354C17.6317 18.1021 17.7559 18.1836 17.8513 18.279C17.9477 18.3754 18.0218 18.4893 18.0727 18.6209C18.1246 18.7534 18.1505 18.896 18.1505 19.0498C18.1505 19.3889 18.0421 19.6705 17.8272 19.8966C17.6123 20.1236 17.3334 20.244 16.9916 20.2607V20.7545H16.7034ZM16.7034 16.4771C16.5135 16.5058 16.3634 16.5818 16.2541 16.705C16.1448 16.8282 16.0901 16.9736 16.0901 17.1423C16.0901 17.3081 16.1364 17.448 16.23 17.5601C16.3236 17.6722 16.4811 17.762 16.7034 17.8288V16.4771ZM16.9916 19.853C17.1815 19.8299 17.3381 19.7474 17.4622 19.6066C17.5863 19.4658 17.6484 19.2907 17.6484 19.0823C17.6484 18.9053 17.6039 18.7626 17.5169 18.6551C17.4289 18.5477 17.2538 18.4513 16.9916 18.3661V19.853Z" fill="#E6EE9C"/>
</g>
<defs>
<clipPath id="clip0_66_2771">
<rect width="34" height="34" fill="white"/>
</clipPath>
</defs>
</svg>
