<svg width="34" height="34" viewBox="0 0 34 34" fill="none" xmlns="http://www.w3.org/2000/svg">
<g clip-path="url(#clip0_66_2680)">
<path fill-rule="evenodd" clip-rule="evenodd" d="M17 0C26.3888 0 34 7.61117 34 17C34 26.3888 26.3888 34 17 34C7.61117 34 0 26.3888 0 17C0 7.61117 7.61117 0 17 0Z" fill="#BFC7F8"/>
<path fill-rule="evenodd" clip-rule="evenodd" d="M22.8106 10.5457L41.668 29.4031L40.828 28.5727L21.9707 9.71533L22.8106 10.5457Z" fill="#AA90F7"/>
<path fill-rule="evenodd" clip-rule="evenodd" d="M21.9714 9.71544L40.8289 28.5728L40.3624 28.1118L21.5049 9.25439L21.9714 9.71544Z" fill="#AA90F7"/>
<path fill-rule="evenodd" clip-rule="evenodd" d="M23.7721 11.4956L42.6295 30.3528L42.4638 30.5393L42.2958 30.7229L42.1254 30.9037L41.9528 31.0818L41.7776 31.2571L41.6003 31.4296L41.4209 31.5995L41.2389 31.7665L41.055 31.9307L40.8687 32.0922L40.6804 32.2511L40.49 32.4071L40.2973 32.5605L40.1027 32.7111L39.906 32.859L39.7073 33.0043L39.5066 33.1467L39.3038 33.2865L39.0991 33.4236L38.8926 33.5579L38.6841 33.6897L38.4738 33.8187L38.2616 33.9451L38.0476 34.0688L37.8318 34.1896L37.6141 34.308L37.3948 34.4237L37.1739 34.5366L36.9512 34.647L36.7268 34.7546L36.5008 34.8597L36.2732 34.9621L36.0096 35.0766L35.7445 35.1874L35.4779 35.2944L35.2099 35.398L34.9405 35.4978L34.6699 35.5943L34.3979 35.6869L34.1248 35.7762L33.8507 35.8621L33.5753 35.9442L33.2991 36.0231L33.0216 36.0986L32.7434 36.1707L32.4642 36.2394L32.1841 36.3048L31.9034 36.3669L31.6218 36.4258L31.3396 36.4813L31.0567 36.5337L30.7733 36.5831L30.4892 36.629L30.2049 36.672L29.9198 36.7119L29.6346 36.7486L29.3491 36.7823L29.0632 36.813L28.7771 36.8407L28.4908 36.8656L28.2044 36.8874L27.918 36.9063L27.6315 36.9224L27.3449 36.9357L27.0487 36.948L8.19141 18.0905L8.48756 18.0784L8.77402 18.0651L9.06051 18.049L9.34699 18.0301L9.63338 18.0082L9.91965 17.9834L10.2058 17.9557L10.4916 17.925L10.7772 17.8913L11.0625 17.8544L11.3474 17.8146L11.6318 17.7717L11.9158 17.7256L12.1993 17.6765L12.4821 17.624L12.7644 17.5684L13.0459 17.5096L13.3267 17.4475L13.6068 17.3821L13.8859 17.3134L14.1642 17.2413L14.4416 17.1658L14.7179 17.0869L14.9933 17.0046L15.2675 16.9189L15.5406 16.8296L15.8125 16.7368L16.0831 16.6405L16.3525 16.5406L16.6205 16.4371L16.8871 16.33L17.1522 16.2192L17.4158 16.1047L17.6435 16.0024L17.8694 15.8973L18.0939 15.7896L18.3165 15.6793L18.5375 15.5663L18.7568 15.4507L18.9744 15.3323L19.1901 15.2114L19.4042 15.0877L19.6164 14.9614L19.8267 14.8324L20.0351 14.7007L20.2418 14.5663L20.4465 14.4292L20.6492 14.2894L20.8499 14.1469L21.0486 14.0017L21.2453 13.8538L21.4399 13.7032L21.6325 13.5498L21.8231 13.3937L22.0113 13.2349L22.1976 13.0734L22.3815 12.9091L22.5633 12.742L22.743 12.5723L22.9203 12.3997L23.0954 12.2244L23.2681 12.0464L23.4384 11.8656L23.6064 11.682L23.7721 11.4956Z" fill="#AA90F7"/>
<path fill-rule="evenodd" clip-rule="evenodd" d="M11.4023 18.5601L30.2597 37.4176V43.02L11.4023 24.1626V18.5601Z" fill="#AA90F7"/>
<path fill-rule="evenodd" clip-rule="evenodd" d="M14.4951 18.229L33.3526 37.0864V43.0196L14.4951 24.1622V18.229Z" fill="#AA90F7"/>
<path fill-rule="evenodd" clip-rule="evenodd" d="M17.5879 17.313L36.4454 36.1705V43.02L17.5879 24.1625V17.313Z" fill="#AA90F7"/>
<path fill-rule="evenodd" clip-rule="evenodd" d="M26.2967 7.94043L45.1541 26.7979L44.9882 27.4316L26.1309 8.57418L26.2967 7.94043Z" fill="#AA90F7"/>
<path fill-rule="evenodd" clip-rule="evenodd" d="M26.1306 8.57422L44.988 27.4316L44.0615 30.9707L25.2041 12.1133L26.1306 8.57422Z" fill="#AA90F7"/>
<path fill-rule="evenodd" clip-rule="evenodd" d="M25.2043 12.1133L44.0616 30.9707L43.8956 31.605L25.0381 12.7476L25.2043 12.1133Z" fill="#AA90F7"/>
<path fill-rule="evenodd" clip-rule="evenodd" d="M25.0379 12.7476L43.8956 31.605L43.4298 31.1445L24.5723 12.2871L25.0379 12.7476Z" fill="#AA90F7"/>
<path fill-rule="evenodd" clip-rule="evenodd" d="M24.573 12.2869L43.4302 31.1443L42.6297 30.3529L23.7725 11.4956L24.573 12.2869Z" fill="#AA90F7"/>
<path fill-rule="evenodd" clip-rule="evenodd" d="M20.6807 16.2622L39.538 35.1197V43.0197L20.6807 24.1623V16.2622Z" fill="#AA90F7"/>
<path fill-rule="evenodd" clip-rule="evenodd" d="M20.681 24.1621L39.5384 43.0196H38.1865L19.3291 24.1621H20.681Z" fill="#AA90F7"/>
<path fill-rule="evenodd" clip-rule="evenodd" d="M17.5883 24.1621L36.4456 43.0196H35.0938L16.2363 24.1621H17.5883Z" fill="#AA90F7"/>
<path fill-rule="evenodd" clip-rule="evenodd" d="M23.7734 13.5371L42.6308 32.3945V43.0195L23.7734 24.1621V13.5371Z" fill="#AA90F7"/>
<path fill-rule="evenodd" clip-rule="evenodd" d="M14.4954 24.1621L33.3529 43.0196H32.001L13.1436 24.1621H14.4954Z" fill="#AA90F7"/>
<path fill-rule="evenodd" clip-rule="evenodd" d="M23.7728 24.1621L42.6301 43.0196H41.2783L22.4209 24.1621H23.7728Z" fill="#AA90F7"/>
<path fill-rule="evenodd" clip-rule="evenodd" d="M11.4026 24.1621L30.2599 43.0196H28.9082L10.0508 24.1621H11.4026Z" fill="#AA90F7"/>
<path fill-rule="evenodd" clip-rule="evenodd" d="M25.917 24.7607L44.7745 43.6181V44.9172L25.917 26.0596V24.7607Z" fill="#AA90F7"/>
<path fill-rule="evenodd" clip-rule="evenodd" d="M25.9174 26.0591L44.7748 44.9166H26.5605L7.70312 26.0591H25.9174Z" fill="#AA90F7"/>
<path fill-rule="evenodd" clip-rule="evenodd" d="M23.7729 13.5372V24.1622H22.4211V13.5372H23.7729ZM20.6803 16.2621V24.1622H19.3285V16.2621H20.6803ZM8.43193 16.7307C11.3177 16.6116 14.2226 16.0434 16.8715 14.8711C19.1517 13.862 21.178 12.4301 22.811 10.5456L21.971 9.71519L21.5046 9.25416L22.1371 9.08074L25.6653 8.11358L26.2969 7.94043L26.131 8.57419L25.2045 12.1133L25.0384 12.7476L24.5726 12.2871L23.7721 11.4958C22.0182 13.4985 19.8521 15.0268 17.4159 16.105C14.6118 17.3459 11.5429 17.9524 8.4876 18.0786L8.19143 18.0908L8.1357 16.743L8.43193 16.7307ZM17.5878 17.3128V24.1622H16.2359V17.3128H17.5878ZM14.4953 18.2289V24.1622H13.1434V18.2289H14.4953ZM11.4027 18.5598V24.1622H10.0509V18.5598H11.4027ZM7.70312 24.7605H25.9174V26.0595H7.70312V24.7605Z" fill="#AA90F7"/>
<path fill-rule="evenodd" clip-rule="evenodd" d="M19.3285 24.1622V16.262H20.6803V24.1622H19.3285ZM16.2359 24.1622V17.3127H17.5878V24.1622H16.2359ZM13.1433 24.1622V18.2289H14.4952V24.1622H13.1433ZM10.0508 24.1622V18.5596H11.4026V24.1622H10.0508ZM22.421 24.1622V13.5371H23.7729V24.1622H22.421Z" fill="#FFE082"/>
<path fill-rule="evenodd" clip-rule="evenodd" d="M8.43196 16.7307C11.3177 16.6116 14.2226 16.0434 16.8715 14.8711C19.1517 13.862 21.178 12.4301 22.811 10.5456L21.971 9.71519L21.5046 9.25414L22.1372 9.08072L25.6653 8.11358L26.2969 7.94043L26.131 8.57419L25.2045 12.1133L25.0384 12.7476L24.5727 12.2871L23.7722 11.4958C22.0183 13.4985 19.8521 15.0268 17.4159 16.1049C14.6119 17.3458 11.5429 17.9524 8.48763 18.0785L8.19147 18.0908L8.13574 16.7429L8.43196 16.7307V16.7307Z" fill="#B2EBF2"/>
<path fill-rule="evenodd" clip-rule="evenodd" d="M7.70312 24.7607H25.9174V26.0598H7.70312V24.7607Z" fill="#FFE082"/>
</g>
<defs>
<clipPath id="clip0_66_2680">
<rect width="34" height="34" fill="white"/>
</clipPath>
</defs>
</svg>
