<svg width="21" height="17" viewBox="0 0 21 17" fill="none" xmlns="http://www.w3.org/2000/svg">
<path d="M14.0299 1.30456C15.1233 1.30456 16.0458 1.68505 16.7975 2.44604C17.6448 2.28297 18.4375 1.99081 19.1755 1.56954C18.8885 2.43925 18.3418 3.10512 17.5355 3.56715C18.2871 3.48561 19.0046 3.29536 19.688 2.9964C19.524 3.24101 19.3429 3.47542 19.1447 3.69964C18.9466 3.92386 18.7347 4.13449 18.5092 4.33153C18.2837 4.52858 18.048 4.71543 17.802 4.89209C17.8156 5.05516 17.8225 5.21143 17.8225 5.36091C17.8225 6.16267 17.7165 6.97122 17.5047 7.78657C17.2929 8.60192 16.9854 9.39688 16.5822 10.1715C16.179 10.946 15.6665 11.6663 15.0447 12.3321C14.4228 12.998 13.7258 13.5823 12.9537 14.0851C12.1815 14.5879 11.2931 14.982 10.2886 15.2674C9.28413 15.5528 8.22153 15.6954 7.10085 15.6954C5.00983 15.6954 3.08281 15.1519 1.31979 14.0647C1.47012 14.0783 1.61704 14.0919 1.76054 14.1055C1.90405 14.1191 2.0578 14.1259 2.2218 14.1259C3.97115 14.1259 5.52917 13.6027 6.89585 12.5564C6.07584 12.5428 5.34467 12.3016 4.70233 11.8327C4.05999 11.3639 3.61581 10.7626 3.36981 10.0288C3.45181 10.0424 3.5304 10.056 3.60556 10.0695C3.68073 10.0831 3.75932 10.0933 3.84132 10.1001C3.92332 10.1069 4.00532 10.1103 4.08732 10.1103C4.42899 10.1103 4.75699 10.0627 5.07133 9.96763C4.21032 9.80456 3.49281 9.39009 2.91881 8.72422C2.3448 8.05835 2.0578 7.28377 2.0578 6.40048V6.35971C2.5908 6.64508 3.15798 6.79456 3.75932 6.80815C3.41765 6.59073 3.12381 6.32914 2.87781 6.02338C2.6318 5.71763 2.43705 5.3711 2.29355 4.98381C2.15005 4.59652 2.0783 4.19904 2.0783 3.79137C2.0783 3.46523 2.12272 3.14588 2.21155 2.83333C2.30038 2.52078 2.4268 2.22862 2.5908 1.95683C3.53381 3.08473 4.67841 3.98161 6.02459 4.64748C7.37077 5.31335 8.81604 5.68705 10.3604 5.76859C10.2921 5.4968 10.2579 5.21823 10.2579 4.93285C10.2579 3.92726 10.6269 3.07114 11.3649 2.36451C12.1029 1.65787 12.9912 1.30456 14.0299 1.30456ZM14.0299 0C12.7589 0 11.6451 0.411071 10.6884 1.23321C9.73171 2.05536 9.17137 3.07114 9.00737 4.28058C6.80701 3.84572 5.003 2.79257 3.59531 1.1211C3.33564 0.808553 3.00081 0.652278 2.5908 0.652278L2.4883 0.672662C2.0373 0.69984 1.69563 0.903677 1.46329 1.28417C0.99862 2.05875 0.766284 2.89448 0.766284 3.79137C0.766284 4.3757 0.868785 4.93965 1.07379 5.48321C0.855118 5.74141 0.745784 6.03357 0.745784 6.35971V6.40048C0.745784 7.69145 1.19679 8.81255 2.0988 9.76379C2.07146 9.8725 2.06121 9.98461 2.06805 10.1001C2.07488 10.2156 2.09196 10.3277 2.1193 10.4365C2.41997 11.3197 2.92564 12.0604 3.63631 12.6583C3.40398 12.7126 3.16823 12.7534 2.92906 12.7806C2.68989 12.8078 2.45414 12.8213 2.2218 12.8213C1.94846 12.8213 1.69563 12.8078 1.46329 12.7806L1.31979 12.7602C1.03279 12.7602 0.776534 12.8417 0.551032 13.0048C0.325529 13.1679 0.164944 13.3785 0.0692766 13.6367C-0.0263911 13.9221 -0.0229744 14.2108 0.0795267 14.503C0.182028 14.7952 0.363113 15.016 0.622783 15.1655C2.5908 16.3885 4.75016 17 7.10085 17C8.54953 17 9.91622 16.786 11.2009 16.3579C12.4856 15.9299 13.5994 15.3421 14.5424 14.5947C15.4854 13.8473 16.302 12.9878 16.9922 12.0162C17.6824 11.0446 18.2086 10.005 18.5707 8.89748C18.9329 7.78997 19.1208 6.66547 19.1345 5.52398C19.7495 5.02118 20.2825 4.44365 20.7335 3.79137C20.8292 3.68265 20.8975 3.56035 20.9385 3.42446C20.9795 3.28857 21 3.14588 21 2.9964C21 2.54796 20.8155 2.19464 20.4465 1.93645C20.4875 1.75979 20.5012 1.58993 20.4875 1.42686C20.4738 1.26379 20.426 1.10412 20.344 0.947842C20.262 0.791567 20.1527 0.659073 20.016 0.55036C19.77 0.360112 19.4898 0.264988 19.1755 0.264988C19.1208 0.264988 19.0661 0.268385 19.0115 0.27518C18.9568 0.281974 18.9021 0.292166 18.8475 0.305755C18.7928 0.319345 18.7381 0.336331 18.6835 0.356715C18.6288 0.377098 18.5741 0.400879 18.5195 0.428058C18.0958 0.686251 17.638 0.883293 17.146 1.01918C16.2166 0.339728 15.1779 0 14.0299 0Z" fill="white"/>
</svg>
