<svg width="90" height="37" viewBox="0 0 90 37" fill="none" xmlns="http://www.w3.org/2000/svg">
<path d="M10 31.5L14.5 16L19 24L22.5 12.5L25.5 3M25.5 3L28 8M25.5 3L20.5 6" stroke="#1D52AF" stroke-width="3"/>
<path d="M1.909 14.9H5.635V31H1.909V14.9Z" fill="#1D52AF"/>
<path d="M43.388 14.9L36.419 31H32.739L25.793 14.9H29.818L34.717 26.4L39.685 14.9H43.388ZM58.1182 28.01V31H45.6522V14.9H57.8192V17.89H49.3552V21.386H56.8302V24.284H49.3552V28.01H58.1182ZM67.2929 31.276C66.0202 31.276 64.7859 31.1073 63.5899 30.77C62.4092 30.4173 61.4586 29.965 60.7379 29.413L62.0029 26.607C62.6929 27.113 63.5132 27.5193 64.4639 27.826C65.4146 28.1327 66.3652 28.286 67.3159 28.286C68.3739 28.286 69.1559 28.1327 69.6619 27.826C70.1679 27.504 70.4209 27.0823 70.4209 26.561C70.4209 26.1777 70.2676 25.8633 69.9609 25.618C69.6696 25.3573 69.2862 25.1503 68.8109 24.997C68.3509 24.8437 67.7222 24.675 66.9249 24.491C65.6982 24.1997 64.6939 23.9083 63.9119 23.617C63.1299 23.3257 62.4552 22.858 61.8879 22.214C61.3359 21.57 61.0599 20.7113 61.0599 19.638C61.0599 18.7027 61.3129 17.8593 61.8189 17.108C62.3249 16.3413 63.0839 15.7357 64.0959 15.291C65.1232 14.8463 66.3729 14.624 67.8449 14.624C68.8722 14.624 69.8766 14.7467 70.8579 14.992C71.8392 15.2373 72.6979 15.59 73.4339 16.05L72.2839 18.879C70.7966 18.0357 69.3092 17.614 67.8219 17.614C66.7792 17.614 66.0049 17.7827 65.4989 18.12C65.0082 18.4573 64.7629 18.902 64.7629 19.454C64.7629 20.006 65.0466 20.42 65.6139 20.696C66.1966 20.9567 67.0782 21.2173 68.2589 21.478C69.4856 21.7693 70.4899 22.0607 71.2719 22.352C72.0539 22.6433 72.7209 23.1033 73.2729 23.732C73.8402 24.3607 74.1239 25.2117 74.1239 26.285C74.1239 27.205 73.8632 28.0483 73.3419 28.815C72.8359 29.5663 72.0692 30.1643 71.0419 30.609C70.0146 31.0537 68.7649 31.276 67.2929 31.276ZM80.7003 17.936H75.5483V14.9H89.5783V17.936H84.4263V31H80.7003V17.936Z" fill="#1D52AF"/>
</svg>
