<svg width="18" height="18" viewBox="0 0 18 18" fill="none" xmlns="http://www.w3.org/2000/svg">
<path d="M9 0C10.5148 0 11.7515 0.0177515 12.7101 0.0532544C13.5266 0.0887574 14.2544 0.230769 14.8935 0.47929C15.5089 0.715976 16.0414 1.05917 16.4911 1.50888C16.9408 1.95858 17.284 2.49112 17.5207 3.10651C17.7692 3.74556 17.9112 4.47337 17.9467 5.28994C17.9822 6.24852 18 7.48521 18 9C18 10.5148 17.9822 11.7515 17.9467 12.7101C17.9112 13.5266 17.7692 14.2544 17.5207 14.8935C17.284 15.5089 16.9408 16.0414 16.4911 16.4911C16.0414 16.9408 15.5089 17.284 14.8935 17.5207C14.2544 17.7692 13.5266 17.9112 12.7101 17.9467C11.7515 17.9822 10.5148 18 9 18C7.48521 18 6.24852 17.9822 5.28994 17.9467C4.47337 17.9112 3.74556 17.7692 3.10651 17.5207C2.49112 17.284 1.95858 16.9408 1.50888 16.4911C1.05917 16.0414 0.715976 15.5089 0.47929 14.8935C0.230769 14.2544 0.0887574 13.5266 0.0532544 12.7101C0.0177515 11.7515 0 10.5148 0 9C0 7.48521 0.0177515 6.24852 0.0532544 5.28994C0.0887574 4.47337 0.230769 3.74556 0.47929 3.10651C0.715976 2.49112 1.05917 1.95858 1.50888 1.50888C1.95858 1.05917 2.49112 0.715976 3.10651 0.47929C3.74556 0.230769 4.47337 0.0887574 5.28994 0.0532544C6.24852 0.0177515 7.48521 0 9 0ZM9 1.1716C7.42604 1.1716 6.14201 1.18935 5.14793 1.22485C4.50888 1.24852 3.91716 1.36095 3.37278 1.56213C2.52071 1.91716 1.91716 2.52071 1.56213 3.37278C1.36095 3.91716 1.24852 4.50888 1.22485 5.14793C1.18935 6.14201 1.1716 7.42604 1.1716 9C1.1716 10.574 1.18935 11.858 1.22485 12.8521C1.24852 13.4911 1.36095 14.0828 1.56213 14.6272C1.91716 15.4793 2.52071 16.0828 3.37278 16.4379C3.91716 16.6391 4.50888 16.7515 5.14793 16.7751C6.14201 16.8107 7.42604 16.8284 9 16.8284C10.574 16.8284 11.858 16.8107 12.8521 16.7751C13.4911 16.7515 14.0828 16.6391 14.6272 16.4379C15.4793 16.0828 16.0828 15.4793 16.4379 14.6272C16.6391 14.0828 16.7515 13.4911 16.7751 12.8521C16.8107 11.858 16.8284 10.574 16.8284 9C16.8284 7.42604 16.8107 6.14201 16.7751 5.14793C16.7515 4.50888 16.6391 3.91716 16.4379 3.37278C16.0828 2.52071 15.4793 1.91716 14.6272 1.56213C14.0828 1.36095 13.4911 1.24852 12.8521 1.22485C11.858 1.18935 10.574 1.1716 9 1.1716ZM9 12.6035C9.99408 12.6035 10.8432 12.2515 11.5473 11.5473C12.2515 10.8432 12.6035 9.99408 12.6035 9C12.6035 8.00592 12.2515 7.1568 11.5473 6.45266C10.8432 5.74852 9.99408 5.39645 9 5.39645C8.00592 5.39645 7.1568 5.74852 6.45266 6.45266C5.74852 7.1568 5.39645 8.00592 5.39645 9C5.39645 9.99408 5.74852 10.8432 6.45266 11.5473C7.1568 12.2515 8.00592 12.6035 9 12.6035ZM9 4.38462C10.2781 4.38462 11.3669 4.83432 12.2663 5.73373C13.1657 6.63314 13.6154 7.72189 13.6154 9C13.6154 10.2781 13.1657 11.3669 12.2663 12.2663C11.3669 13.1657 10.2781 13.6154 9 13.6154C7.72189 13.6154 6.63314 13.1657 5.73373 12.2663C4.83432 11.3669 4.38462 10.2781 4.38462 9C4.38462 7.72189 4.83432 6.63314 5.73373 5.73373C6.63314 4.83432 7.72189 4.38462 9 4.38462ZM14.8935 4.2071C14.8935 4.50296 14.787 4.75444 14.574 4.96154C14.3609 5.16864 14.1006 5.27219 13.7929 5.27219C13.497 5.27219 13.2456 5.16864 13.0385 4.96154C12.8314 4.75444 12.7278 4.50296 12.7278 4.2071C12.7278 3.89941 12.8314 3.63905 13.0385 3.42604C13.2456 3.21302 13.497 3.10651 13.7929 3.10651C14.0888 3.10651 14.3462 3.21598 14.5651 3.43491C14.784 3.65385 14.8935 3.91124 14.8935 4.2071Z" fill="white"/>
</svg>
