<svg width="23" height="17" viewBox="0 0 23 17" fill="none" xmlns="http://www.w3.org/2000/svg">
<path d="M21.117 15.9173C20.9227 16.0556 20.6611 16.1784 20.3324 16.2859C20.0036 16.3934 19.5029 16.5047 18.8304 16.6199C18.1579 16.7351 17.1977 16.8272 15.9498 16.8963C14.7019 16.9654 13.2186 17 11.5 17C6.29922 17 3.19818 16.6852 2.19688 16.0556C1.01624 15.3338 0.306368 13.2069 0.0672515 9.6748C0.0373619 9.21409 0.0149448 8.77642 0 8.36179C0.0149448 7.83966 0.0485705 7.29065 0.100877 6.71477C0.153184 6.13889 0.246589 5.43248 0.381092 4.59553C0.515595 3.75858 0.739766 3.0061 1.05361 2.33808C1.36745 1.67005 1.74107 1.19783 2.17446 0.92141C3.17576 0.307137 6.28428 0 11.5 0C16.9399 0 20.1455 0.353207 21.117 1.05962C21.5055 1.3514 21.8343 1.81211 22.1033 2.44173C22.3723 3.07136 22.5666 3.77778 22.6862 4.56098C22.8057 5.34417 22.8842 6.03139 22.9215 6.62263C22.9589 7.21387 22.9851 7.80126 23 8.38482C22.9851 8.90696 22.9589 9.45596 22.9215 10.0318C22.8842 10.6077 22.8095 11.318 22.6974 12.1626C22.5853 13.0072 22.3947 13.7712 22.1257 14.4546C21.8567 15.138 21.5205 15.6256 21.117 15.9173ZM20.2651 2.25745C20.1306 2.16531 19.8765 2.06933 19.5029 1.96951C19.1293 1.86969 18.2364 1.7622 16.8241 1.64702C15.4118 1.53184 13.6371 1.47425 11.5 1.47425C9.42268 1.47425 7.69656 1.528 6.32164 1.6355C4.94672 1.743 4.07245 1.83898 3.69883 1.92344C3.32521 2.0079 3.06368 2.09621 2.91423 2.18835C2.54061 2.4187 2.20809 3.0944 1.91667 4.21545C1.62524 5.3365 1.46459 6.71861 1.4347 8.36179C1.46459 10.0203 1.62898 11.4523 1.92788 12.6579C2.22677 13.8634 2.56303 14.5813 2.93665 14.8117C3.07115 14.8884 3.32521 14.9729 3.69883 15.065C4.07245 15.1572 4.94672 15.257 6.32164 15.3645C7.69656 15.472 9.42268 15.5257 11.5 15.5257C13.6371 15.5257 15.4118 15.4682 16.8241 15.353C18.2364 15.2378 19.1293 15.1303 19.5029 15.0305C19.8765 14.9307 20.1306 14.827 20.2651 14.7195C20.4295 14.612 20.5864 14.3817 20.7359 14.0285C20.8853 13.6752 21.0198 13.2337 21.1394 12.7039C21.2589 12.1741 21.3561 11.533 21.4308 10.7805C21.5055 10.028 21.5504 9.22945 21.5653 8.38482C21.5504 6.72629 21.4159 5.35569 21.1618 4.27304C20.9077 3.19038 20.6088 2.51852 20.2651 2.25745ZM16.1628 9.07588L9.70663 13.1531C9.46751 13.3067 9.2284 13.3105 8.98928 13.1646C8.75016 13.0187 8.6306 12.7999 8.6306 12.5081V4.37669C8.6306 4.08491 8.75016 3.86992 8.98928 3.73171C9.10884 3.67028 9.2284 3.63957 9.34795 3.63957C9.40773 3.63957 9.47125 3.64725 9.5385 3.6626C9.60575 3.67796 9.66179 3.70867 9.70663 3.75474L16.1628 7.80894C16.4019 7.96251 16.5214 8.17751 16.5214 8.45393C16.5065 8.73035 16.3869 8.93767 16.1628 9.07588ZM10.0653 5.6897V11.2182L14.4142 8.45393L10.0653 5.6897Z" fill="white"/>
</svg>
