<svg width="9" height="18" viewBox="0 0 9 18" fill="none" xmlns="http://www.w3.org/2000/svg">
<path d="M5.72687 1.16246L5.83195 1.18063H7.28557V2.92432H5.83195C5.75023 2.92432 5.67142 2.93037 5.59552 2.94248C5.51963 2.95459 5.45834 2.97578 5.41163 3.00605C5.36493 3.03633 5.32115 3.06963 5.28028 3.10595C5.23942 3.14228 5.20439 3.17861 5.1752 3.21493C5.14601 3.25126 5.12266 3.29062 5.10515 3.333C5.08764 3.37538 5.07596 3.41171 5.07012 3.44198L5.05261 3.5328L5.04385 3.59637V6.39354H7.88102L7.47821 8.13724H5.04385V16.8557H3.36257V8.13724H1.12086V6.39354H3.36257V3.68718C3.36257 3.31181 3.40927 2.97578 3.50268 2.67911C3.59608 2.38244 3.72159 2.14934 3.87921 1.97982C4.03683 1.81029 4.19737 1.66498 4.36083 1.5439C4.52429 1.42281 4.70526 1.33804 4.90375 1.28961C5.10223 1.24117 5.25985 1.20787 5.37661 1.18971C5.49336 1.17154 5.61012 1.16246 5.72687 1.16246ZM5.72687 0C5.00299 0 4.35499 0.181635 3.78289 0.544904C2.75544 1.18668 2.24171 2.23411 2.24171 3.68718V5.23108H1.12086C0.817291 5.23108 0.55459 5.34612 0.332754 5.57619C0.110918 5.80626 0 6.07871 0 6.39354V8.13724C0 8.45207 0.110918 8.72452 0.332754 8.95459C0.55459 9.18466 0.817291 9.2997 1.12086 9.2997H2.24171V16.8375C2.24171 17.1645 2.34971 17.44 2.56571 17.664C2.78171 17.888 3.04733 18 3.36257 18H5.04385C5.34742 18 5.61012 17.888 5.83195 17.664C6.05379 17.44 6.16471 17.1645 6.16471 16.8375V9.2997H7.47821C7.73508 9.2997 7.96275 9.22099 8.16123 9.06357C8.35972 8.90616 8.49399 8.70636 8.56404 8.46418L8.94934 6.72048C9.05442 6.34511 8.99604 6.00303 8.7742 5.69425C8.55237 5.38547 8.25464 5.23108 7.88102 5.23108H6.16471V4.08678H7.28557C7.58913 4.08678 7.85183 3.97175 8.07367 3.74168C8.2955 3.5116 8.40642 3.23915 8.40642 2.92432V1.18063C8.40642 0.853683 8.29842 0.578204 8.08242 0.354188C7.86643 0.130172 7.60664 0.0181635 7.30308 0.0181635H5.86698C5.82028 0.00605449 5.77358 0 5.72687 0Z" fill="white"/>
</svg>
